<?xml version="1.0" encoding="UTF-8" standalone="no"?>
<!-- Created with Inkscape (http://www.inkscape.org/) -->

<svg
   xmlns:dc="http://purl.org/dc/elements/1.1/"
   xmlns:cc="http://creativecommons.org/ns#"
   xmlns:rdf="http://www.w3.org/1999/02/22-rdf-syntax-ns#"
   xmlns:svg="http://www.w3.org/2000/svg"
   xmlns="http://www.w3.org/2000/svg"
   xmlns:sodipodi="http://sodipodi.sourceforge.net/DTD/sodipodi-0.dtd"
   xmlns:inkscape="http://www.inkscape.org/namespaces/inkscape"
   width="210mm"
   height="297mm"
   viewBox="0 0 744.09448819 1052.3622047"
   id="svg3594"
   version="1.1"
   inkscape:version="0.91 r13725"
   sodipodi:docname="gelato-2.svg">
  <defs
     id="defs3596" />
  <sodipodi:namedview
     id="base"
     pagecolor="#ffffff"
     bordercolor="#666666"
     borderopacity="1.0"
     inkscape:pageopacity="0.0"
     inkscape:pageshadow="2"
     inkscape:zoom="0.67372241"
     inkscape:cx="650.35178"
     inkscape:cy="526.1811"
     inkscape:document-units="px"
     inkscape:current-layer="layer1"
     showgrid="false"
     inkscape:window-width="1440"
     inkscape:window-height="851"
     inkscape:window-x="0"
     inkscape:window-y="1"
     inkscape:window-maximized="1" />
  <metadata
     id="metadata3599">
    <rdf:RDF>
      <cc:Work
         rdf:about="">
        <dc:format>image/svg+xml</dc:format>
        <dc:type
           rdf:resource="http://purl.org/dc/dcmitype/StillImage" />
        <dc:title></dc:title>
      </cc:Work>
    </rdf:RDF>
  </metadata>
  <g
     inkscape:label="Livello 1"
     inkscape:groupmode="layer"
     id="layer1">
    <g
       id="g4601"
       transform="translate(25.476448,19.449079)">
      <rect
         transform="matrix(0.86522798,0.50137865,0,1,0,0)"
         ry="35.623001"
         y="462.75269"
         x="365.3996"
         height="204.83214"
         width="99.498482"
         id="rect4599"
         style="color:#000000;display:inline;overflow:visible;visibility:visible;fill:#decd87;fill-rule:evenodd;stroke:#decd87;stroke-width:1.07506502px;stroke-linecap:butt;stroke-linejoin:miter;stroke-miterlimit:4;stroke-dasharray:none;stroke-dashoffset:0;stroke-opacity:1;marker:none;enable-background:accumulate" />
      <path
         style="fill:#fca322"
         d="m 379.38917,801.28719 c 0,-2.31339 0.38189,-3.25978 0.84862,-2.10309 0.46674,1.1567 0.46674,3.04948 0,4.20618 -0.46673,1.15669 -0.84862,0.2103 -0.84862,-2.10309 z m -0.99871,-13.95293 c 0.63182,-1.65929 1.57259,-2.59306 2.0906,-2.07504 0.51802,0.51801 10e-4,1.8756 -1.14875,3.01688 -1.66164,1.64926 -1.85489,1.45601 -0.94185,-0.94184 z m 28.58528,-1.04128 c -0.5216,-0.84396 -3.14985,-1.18751 -5.84055,-0.76344 -2.69073,0.42407 -5.27779,0.14721 -5.74905,-0.61536 -0.47126,-0.76252 2.36468,-1.38639 6.30209,-1.38639 4.68849,0 7.15892,0.74187 7.15892,2.14982 0,2.53813 -0.56771,2.72479 -1.87141,0.61537 z m 5.12925,-1.55006 c -0.4766,-0.77115 0.20253,-1.40207 1.50915,-1.40207 1.30663,0 1.98575,0.63092 1.50916,1.40207 -0.47658,0.77112 -1.1557,1.40205 -1.50916,1.40205 -0.35345,0 -1.03258,-0.63093 -1.50915,-1.40205 z m 6.58129,-0.24041 c -0.61385,-0.99321 -0.1134,-1.59781 1.11206,-1.34355 1.22548,0.25427 2.03887,-0.48408 1.80753,-1.64078 -0.23134,-1.1567 0.52577,-1.91381 1.68247,-1.68247 1.1567,0.23134 1.91381,-0.52577 1.68247,-1.68247 -0.23134,-1.1567 0.52577,-1.91381 1.68247,-1.68247 1.1567,0.23134 1.91381,-0.52577 1.68247,-1.68247 -0.23134,-1.15669 0.52577,-1.91381 1.68247,-1.68247 1.15669,0.23134 1.9138,-0.52577 1.68246,-1.68246 -0.23133,-1.1567 0.52578,-1.91381 1.68247,-1.68247 1.1567,0.23134 1.91381,-0.52578 1.68247,-1.68247 -0.23134,-1.1567 0.52577,-1.91381 1.68247,-1.68247 1.1567,0.23134 1.91381,-0.52577 1.68247,-1.68247 -0.23134,-1.1567 0.52577,-1.91381 1.68247,-1.68247 1.1567,0.23134 1.91381,-0.52577 1.68247,-1.68247 -0.23134,-1.1567 0.14721,-1.91381 0.84123,-1.68247 0.69402,0.23134 1.26186,-0.33649 1.26186,-1.26185 0,-0.92536 -0.44165,-1.53525 -0.98144,-1.35533 -0.5398,0.17994 -0.98145,-0.72439 -0.98145,-2.00961 0,-1.28522 0.8202,-2.18955 1.82268,-2.00961 1.00247,0.17993 1.6334,-0.61925 1.40206,-1.77594 -0.23134,-1.1567 0.14721,-1.91381 0.84123,-1.68247 0.69402,0.23134 1.26185,-0.3365 1.26185,-1.26185 0,-0.92536 -0.44164,-1.53526 -0.98143,-1.35533 -0.5398,0.17994 -0.98145,-0.72439 -0.98145,-2.00961 0,-1.28522 0.8202,-2.18955 1.82268,-2.00961 1.00247,0.17992 1.63339,-0.61925 1.40205,-1.77595 -0.23133,-1.15669 0.14722,-1.91381 0.84124,-1.68247 0.69402,0.23134 1.26185,-0.33649 1.26185,-1.26185 0,-0.92536 -0.44165,-1.53525 -0.98143,-1.35533 -0.53981,0.17994 -0.98145,-0.72438 -0.98145,-2.00961 0,-1.28522 0.8202,-2.18954 1.82268,-2.0096 1.00247,0.17992 1.61463,-0.67553 1.36036,-1.90101 -0.25425,-1.22548 0.35034,-1.72591 1.34355,-1.11206 1.28107,0.79174 1.26944,1.76242 -0.04,3.34021 -1.33951,1.614 -1.33951,2.53707 0,3.36493 1.33952,0.82786 1.33952,1.75093 0,3.36494 -1.33951,1.61401 -1.33951,2.53708 0,3.36494 1.33952,0.82786 1.33952,1.75093 0,3.36494 -1.17653,1.41765 -1.24832,2.59344 -0.19796,3.24259 0.90636,0.56016 1.9406,0.43828 2.29832,-0.27083 0.35773,-0.70911 0.5925,-22.29913 0.52172,-47.97781 -0.0708,-25.67868 0.44595,-46.68851 1.14832,-46.68851 0.70234,0 1.26582,20.63127 1.25214,45.84728 -0.0262,48.47565 -1.3132,59.74129 -8.4145,73.66098 -2.93912,5.76114 -5.86219,9.20231 -4.59977,5.41506 0.23134,-0.69402 -0.33649,-1.26185 -1.26185,-1.26185 -0.92536,0 -1.47443,0.62411 -1.22016,1.38691 0.25426,0.7628 -0.26125,0.93972 -1.14561,0.39317 -0.88434,-0.54656 -2.10616,-0.18751 -2.71517,0.79788 -0.76998,1.24587 -1.83039,1.19148 -3.48119,-0.17858 -2.10449,-1.74657 -2.99463,-1.09665 -2.66663,1.94699 0.0582,0.5398 -0.94577,0.98145 -2.23099,0.98145 -1.28522,0 -2.18955,-0.44165 -2.00961,-0.98145 0.17996,-0.53979 -0.42994,-1.095 -1.35529,-1.2338 -0.92536,-0.13881 -1.4301,0.6183 -1.12166,1.68247 0.30847,1.06416 -4.3e-4,1.37356 -0.68643,0.68759 -0.68599,-0.686 -2.19589,-0.45996 -3.35534,0.5023 -1.46406,1.21504 -2.44909,1.19785 -3.22419,-0.0564 z m 13.33741,-6.92782 c -0.54655,-0.88436 0.008,-1.39986 1.23441,-1.14561 1.22547,0.25427 2.03886,-0.48408 1.80752,-1.64078 -0.23134,-1.15669 0.52577,-1.91381 1.68247,-1.68247 1.1567,0.23134 1.91381,-0.52577 1.68247,-1.68246 -0.23134,-1.1567 0.52577,-1.91381 1.68247,-1.68247 1.1567,0.23134 1.91381,-0.52578 1.68247,-1.68247 -0.23134,-1.1567 0.52577,-1.91381 1.68247,-1.68247 1.1567,0.23134 1.91381,-0.52577 1.68247,-1.68247 -0.23134,-1.1567 0.14721,-2.01343 0.84123,-1.90385 2.86481,0.45233 3.91756,-0.30698 2.8409,-2.04904 -0.6995,-1.13183 -4.95196,1.91914 -10.95585,7.86039 -5.39694,5.34061 -9.4175,10.34949 -8.9346,11.13083 0.48288,0.78135 1.59513,0.97741 2.47165,0.43569 0.87651,-0.5417 1.14648,-1.70848 0.59992,-2.59282 z m 9.82979,-3.85248 c -0.6185,-1.03302 0.17477,-0.82394 1.7628,0.46461 3.03282,2.4609 4.43575,1.98407 5.20183,-1.76806 0.25348,-1.24149 1.0121,-3.52307 1.68581,-5.07018 0.67373,-1.54712 1.43084,-3.81845 1.68247,-5.04741 0.25165,-1.22896 1.03514,-3.56906 1.74111,-5.20021 0.75381,-1.74169 0.41192,-4.01605 -0.82835,-5.51047 -1.87624,-2.26075 -2.46344,-2.22662 -5.26174,0.3058 -3.07457,2.78247 -3.06934,2.9362 0.2192,6.43668 l 3.36899,3.58613 -8.31473,8.1897 c -4.5731,4.50432 -7.89502,8.8688 -7.38203,9.69883 0.51298,0.83003 2.3539,0.22296 4.09094,-1.34902 1.73701,-1.572 2.65219,-3.70337 2.0337,-4.7364 z m 3.44716,-1.80422 c 0,-1.34733 0.64327,-2.05212 1.42951,-1.56621 0.78621,0.48592 0.99392,1.58827 0.46151,2.4497 -1.36047,2.2013 -1.89102,1.95344 -1.89102,-0.88349 z m 3.36494,-16.8987 c 0,-1.07959 0.88329,-1.96288 1.96288,-1.96288 1.07959,0 1.96289,0.88329 1.96289,1.96288 0,1.07959 -0.8833,1.96289 -1.96289,1.96289 -1.07959,0 -1.96288,-0.8833 -1.96288,-1.96289 z m 3.55653,-11.07975 c -0.5417,-0.87651 -1.70207,-1.15043 -2.57858,-0.60871 -0.87652,0.5417 -1.15044,1.70207 -0.60872,2.57858 0.5417,0.87652 1.70207,1.15044 2.57859,0.60872 0.87651,-0.5417 1.15043,-1.70207 0.60871,-2.57859 z m -65.15632,37.63872 c 0.45656,-1.18974 1.03494,-2.16317 1.28531,-2.16317 0.25038,0 1.26309,0.97343 2.2505,2.16317 1.35165,1.62865 1.03403,2.16318 -1.2853,2.16318 -1.81889,0 -2.74061,-0.88597 -2.25051,-2.16318 z m -8.15688,-3.42502 c -2.09277,-2.6685 -2.03326,-2.728 0.63524,-0.63523 1.61937,1.27001 2.94432,2.59495 2.94432,2.94432 0,1.38474 -1.38163,0.49348 -3.57956,-2.30909 z m -10.54812,-3.50514 c -0.47659,-0.77114 0.20254,-1.40207 1.50916,-1.40207 1.30662,0 1.98575,0.63093 1.50916,1.40207 -0.47658,0.77113 -1.15571,1.40206 -1.50916,1.40206 -0.35345,0 -1.03258,-0.63093 -1.50916,-1.40206 z m 90.35353,-2.52111 c 0.64225,-1.69505 1.16772,-3.8103 1.16772,-4.70053 0,-0.89025 0.96877,-1.39616 2.1528,-1.12426 1.18406,0.2719 2.13045,-0.26274 2.10309,-1.18809 -0.0273,-0.92536 -0.61755,-1.49319 -1.31157,-1.26186 -0.69402,0.23134 -1.26185,-0.33649 -1.26185,-1.26185 0,-0.92535 0.69329,-1.68247 1.54064,-1.68247 0.90092,0 1.583,-24.19562 1.64264,-58.27064 l 0.10196,-58.27065 15.99252,-8.09463 c 8.7959,-4.45203 15.8171,-7.45473 15.60267,-6.67266 -0.21442,0.78208 0.36724,1.44804 1.2926,1.47989 0.92536,0.0318 1.48172,-0.9335 1.23636,-2.14525 -0.24535,-1.21175 1.45815,-3.4509 3.78556,-4.97587 2.32741,-1.52497 4.23166,-2.445 4.23166,-2.04447 0,1.06569 9.9511,-7.34181 16.35318,-13.8165 4.72834,-4.782 5.32042,-5.02641 4.07555,-1.68247 -0.80104,2.15174 -1.25299,5.21374 -1.0043,6.80443 0.24868,1.59067 -0.0453,2.72634 -0.65319,2.5237 -0.60787,-0.20265 -1.10526,0.38867 -1.10526,1.31402 0,0.92536 0.44165,1.53526 0.98143,1.35533 0.53981,-0.17994 0.98145,0.72439 0.98145,2.00961 0,1.28522 -0.44164,2.18955 -0.98145,2.00961 -0.53978,-0.17992 -0.98143,0.42997 -0.98143,1.35533 0,0.92536 0.44165,1.53525 0.98143,1.35533 0.53981,-0.17994 0.98145,0.72439 0.98145,2.00961 0,1.28522 -0.44164,2.18955 -0.98145,2.00961 -0.53978,-0.17993 -0.98143,0.42997 -0.98143,1.35533 0,0.92535 0.44165,1.53525 0.98143,1.35533 0.53981,-0.17994 0.98145,0.72438 0.98145,2.0096 0,1.28523 -0.44164,2.18955 -0.98145,2.00961 -0.53978,-0.17992 -1.095,0.42997 -1.2338,1.35533 -0.13881,0.92536 0.30284,1.53526 0.98143,1.35533 0.67861,-0.17994 1.23382,0.72439 1.23382,2.00961 0,1.28522 -0.55521,2.18955 -1.23382,2.00961 -0.67859,-0.17992 -1.2338,0.42997 -1.2338,1.35533 0,0.92536 0.55521,1.53525 1.2338,1.35533 0.67861,-0.17994 1.23382,0.72439 1.23382,2.00961 0,1.28522 -0.55521,2.18954 -1.23382,2.0096 -0.67859,-0.17992 -1.2338,0.42998 -1.2338,1.35533 0,0.92536 0.55521,1.53526 1.2338,1.35533 0.67861,-0.17994 1.23382,0.72439 1.23382,2.00961 0,1.28522 -0.55521,2.18955 -1.23382,2.00961 -0.67859,-0.17992 -1.2338,0.42997 -1.2338,1.35533 0,0.92536 0.55521,1.53525 1.2338,1.35533 0.67861,-0.17994 1.23382,0.72439 1.23382,2.00961 0,1.28522 -0.55521,2.18955 -1.23382,2.00961 -0.67859,-0.17993 -1.2338,0.42997 -1.2338,1.35533 0,0.92535 0.55521,1.53525 1.2338,1.35533 0.67861,-0.17994 1.23382,0.72438 1.23382,2.0096 0,1.28523 -0.55521,2.18955 -1.23382,2.00961 -0.67859,-0.17992 -1.2338,0.42997 -1.2338,1.35533 0,0.92536 0.55521,1.53526 1.2338,1.35533 0.67861,-0.17994 1.23382,0.72439 1.23382,2.00961 0,1.28522 -0.55521,2.18955 -1.23382,2.00961 -0.67859,-0.17992 -1.2338,0.42997 -1.2338,1.35533 0,0.92536 0.55521,1.53525 1.2338,1.35533 0.67861,-0.17994 1.23382,0.72439 1.23382,2.00961 0,1.28522 -0.55521,2.18954 -1.23382,2.0096 -0.67859,-0.17992 -1.2338,0.42998 -1.2338,1.35533 0,0.92536 0.55521,1.53526 1.2338,1.35533 0.67861,-0.17994 1.23382,0.72439 1.23382,2.00961 0,1.28522 -0.55521,2.18955 -1.23382,2.00961 -0.67859,-0.17992 -1.2338,0.42997 -1.2338,1.35533 0,0.92536 0.55521,1.53525 1.2338,1.35533 0.67861,-0.17994 1.23382,0.72439 1.23382,2.00961 0,1.28522 -0.55521,2.18955 -1.23382,2.00961 -0.67859,-0.17993 -1.2338,0.42997 -1.2338,1.35533 0,0.92535 0.55521,1.53525 1.2338,1.35533 0.67861,-0.17994 1.23382,0.64026 1.23382,1.82267 0,1.1824 -0.96742,2.14982 -2.14982,2.14982 -1.18241,0 -2.00261,-0.44165 -1.82267,-0.98145 0.17992,-0.53979 -0.42997,-0.98144 -1.35533,-0.98144 -0.92536,0 -1.49319,0.56784 -1.26185,1.26186 0.23134,0.69401 -0.26079,1.07257 -1.09361,0.84123 -0.83282,-0.23134 -1.51422,0.33649 -1.51422,1.26185 0,0.92536 0.55522,1.53526 1.23381,1.35533 0.6786,-0.17994 1.23382,0.72439 1.23382,2.00961 0,1.28522 -0.44165,2.18955 -0.98145,2.00961 -0.53979,-0.17992 -0.98144,0.42997 -0.98144,1.35533 0,0.92536 0.44165,1.53525 0.98144,1.35533 0.5398,-0.17994 0.98145,0.72439 0.98145,2.00961 0,1.28522 -0.44165,2.18954 -0.98145,2.0096 -0.53979,-0.17992 -0.98144,0.42998 -0.98144,1.35533 0,0.92536 0.44165,1.53526 0.98144,1.35533 0.5398,-0.17994 0.98145,0.64027 0.98145,1.82267 0,1.18241 -0.96742,2.14983 -2.14983,2.14983 -1.1824,0 -2.00261,-0.44165 -1.82267,-0.98145 0.17993,-0.53979 -0.42997,-0.98144 -1.35533,-0.98144 -0.92535,0 -1.49319,0.56784 -1.26185,1.26185 0.23134,0.69402 -0.14721,1.07258 -0.84123,0.84124 -0.69402,-0.23134 -1.26185,0.33649 -1.26185,1.26185 0,0.92536 0.44164,1.53525 0.98143,1.35533 0.5398,-0.17994 0.98145,0.72439 0.98145,2.00961 0,1.28522 -0.8202,2.18955 -1.82268,2.00961 -1.00247,-0.17993 -1.6334,0.61925 -1.40206,1.77594 0.23134,1.1567 -0.52577,1.91381 -1.68247,1.68247 -1.15669,-0.23134 -1.9138,0.52577 -1.68246,1.68247 0.23133,1.1567 -0.26079,1.91381 -1.09361,1.68247 -0.83282,-0.23134 -1.51422,0.33649 -1.51422,1.26185 0,0.92536 0.80955,1.45048 1.79901,1.16693 1.00646,-0.28843 0.84156,0.63811 -0.37425,2.10309 -2.32219,2.79806 -3.71135,3.42152 -3.02311,1.35677 0.23134,-0.69402 -0.33649,-1.26185 -1.26185,-1.26185 -0.92536,0 -1.49319,0.56783 -1.26185,1.26185 0.23134,0.69402 -0.52577,1.07258 -1.68247,0.84124 -1.1567,-0.23134 -1.91381,0.52577 -1.68247,1.68247 0.23134,1.15669 -0.52577,1.9138 -1.68247,1.68246 -1.1567,-0.23133 -1.91381,0.52578 -1.68247,1.68247 0.23134,1.1567 -0.52577,1.91381 -1.68247,1.68247 -1.15669,-0.23134 -1.9138,0.52577 -1.68246,1.68247 0.23133,1.1567 -0.52578,1.91381 -1.68247,1.68247 -1.1567,-0.23134 -1.95587,0.39959 -1.77595,1.40205 0.17994,1.00249 -0.72439,1.82269 -2.00961,1.82269 -1.28522,0 -2.18955,-0.44165 -2.00961,-0.98145 0.17993,-0.53979 -0.42997,-0.98144 -1.35533,-0.98144 -0.92535,0 -1.49319,0.56784 -1.26185,1.26185 0.23134,0.69402 -0.52577,1.07258 -1.68247,0.84124 -1.1567,-0.23134 -1.91381,0.52577 -1.68247,1.68247 0.23134,1.1567 -0.52577,1.91381 -1.68247,1.68247 -1.15669,-0.23134 -1.9138,0.52577 -1.68246,1.68247 0.23133,1.15669 -0.52578,1.9138 -1.68247,1.68246 -1.1567,-0.23133 -1.91381,0.52578 -1.68247,1.68247 0.23134,1.1567 -0.52577,1.91381 -1.68247,1.68247 -1.1567,-0.23134 -1.89505,0.58205 -1.64078,1.80753 0.25426,1.22548 -0.25254,1.78636 -1.12621,1.24639 -0.87369,-0.53997 -2.93214,0.35014 -4.57435,1.97803 -2.8502,2.82535 -2.93278,2.8198 -1.81811,-0.12215 z m 20.33017,-21.61473 c -0.48829,-0.79007 -1.60494,-0.99328 -2.48146,-0.45156 -0.87651,0.54171 -1.14648,1.70848 -0.59992,2.59282 0.54655,0.88436 -0.008,1.39987 -1.23441,1.14561 -1.22547,-0.25427 -2.03886,0.48408 -1.80752,1.64078 0.23133,1.1567 -0.52578,1.91381 -1.68247,1.68247 -1.1567,-0.23134 -1.89505,0.58205 -1.64078,1.80753 0.25425,1.22547 -0.35034,1.72591 -1.34355,1.11206 -1.26657,-0.78277 -1.21749,-1.82503 0.16437,-3.49 1.0836,-1.30565 1.49892,-2.37391 0.92292,-2.37391 -0.57597,0 -1.61507,0 -2.30909,0 -1.36924,0 -1.93245,6.68662 -0.75684,8.98544 0.39781,0.77788 3.63328,-1.42722 7.18995,-4.90021 3.55667,-3.47298 6.06715,-6.96094 5.57885,-7.75103 z m -3.33493,-3.31638 c -0.50479,-0.81677 -1.63495,-1.04184 -2.51147,-0.50011 -0.87651,0.5417 -1.23606,1.56353 -0.79898,2.27072 0.43707,0.70719 -0.18151,1.28581 -1.37462,1.28581 -1.1931,0 -2.16929,-0.96742 -2.16929,-2.14982 0,-1.18241 0.55522,-2.00261 1.23382,-1.82267 0.6786,0.17992 1.23381,-0.42997 1.23381,-1.35533 0,-0.92536 -0.55521,-1.53525 -1.23381,-1.35533 -0.6786,0.17994 -1.23382,-0.72439 -1.23382,-2.00961 0,-1.28522 0.55522,-2.18955 1.23382,-2.00961 0.6786,0.17993 1.12024,-0.42997 0.98144,-1.35533 -0.1388,-0.92536 -0.69402,-1.53525 -1.23381,-1.35533 -0.5398,0.17994 -0.98145,-0.72438 -0.98145,-2.00961 0,-1.28522 0.44165,-2.18954 0.98145,-2.0096 0.53979,0.17992 0.98144,-0.42998 0.98144,-1.35533 0,-0.92536 -0.44165,-1.53526 -0.98144,-1.35533 -0.5398,0.17994 -0.98145,-0.72439 -0.98145,-2.00961 0,-1.28522 0.55522,-2.18955 1.23382,-2.00961 0.6786,0.17992 1.23381,-0.42997 1.23381,-1.35533 0,-0.92536 -0.55521,-1.53525 -1.23381,-1.35533 -0.6786,0.17994 -1.23382,-0.72439 -1.23382,-2.00961 0,-1.28522 0.44165,-2.18955 0.98145,-2.00961 0.53979,0.17993 0.98144,-0.42997 0.98144,-1.35533 0,-0.92535 -0.44165,-1.53525 -0.98144,-1.35533 -0.5398,0.17994 -0.98145,-0.72438 -0.98145,-2.0096 0,-1.28522 0.44165,-2.18955 0.98145,-2.00961 0.53979,0.17992 0.98144,-0.42997 0.98144,-1.35533 0,-0.92536 -0.44165,-1.53525 -0.98144,-1.35533 -0.5398,0.17994 -0.98145,-0.72439 -0.98145,-2.00961 0,-1.28522 0.44165,-2.18955 0.98145,-2.00961 0.53979,0.17993 0.98144,-0.42997 0.98144,-1.35533 0,-0.92536 -0.44165,-1.53525 -0.98144,-1.35533 -0.5398,0.17994 -0.98145,-0.72438 -0.98145,-2.00961 0,-1.28522 0.44165,-2.18954 0.98145,-2.0096 0.53979,0.17992 0.98144,-0.42998 0.98144,-1.35533 0,-0.92536 -0.44165,-1.53526 -0.98144,-1.35533 -0.5398,0.17994 -0.98145,-0.72439 -0.98145,-2.00961 0,-1.28522 0.44165,-2.18955 0.98145,-2.00961 0.53979,0.17992 0.98144,-0.42997 0.98144,-1.35533 0,-0.92536 -0.44165,-1.53525 -0.98144,-1.35533 -0.5398,0.17994 -0.98145,-0.72439 -0.98145,-2.00961 0,-1.28522 0.55522,-2.18955 1.23382,-2.00961 0.6786,0.17993 1.23381,-0.42997 1.23381,-1.35533 0,-0.92535 -0.55521,-1.53525 -1.23381,-1.35533 -0.6786,0.17994 -1.23382,-0.72438 -1.23382,-2.0096 0,-1.28522 0.55522,-2.18955 1.23382,-2.00961 0.6786,0.17992 1.23381,-0.42997 1.23381,-1.35533 0,-0.92536 -0.55521,-1.53525 -1.23381,-1.35533 -0.6786,0.17994 -1.23382,-0.72439 -1.23382,-2.00961 0,-1.28522 0.55522,-2.18955 1.23382,-2.00961 0.6786,0.17993 1.23381,-0.42997 1.23381,-1.35533 0,-0.92536 -0.55521,-1.53525 -1.23381,-1.35533 -0.6786,0.17994 -1.23382,-0.72438 -1.23382,-2.00961 0,-1.28522 0.55522,-2.18954 1.23382,-2.0096 0.6786,0.17992 1.23381,-0.42998 1.23381,-1.35533 0,-0.92536 -0.55521,-1.53526 -1.23381,-1.35533 -0.6786,0.17994 -1.23382,-0.72439 -1.23382,-2.00961 0,-1.28522 0.55522,-2.18955 1.23382,-2.00961 0.6786,0.17992 1.23381,-0.42997 1.23381,-1.35533 0,-0.92536 -0.55521,-1.53525 -1.23381,-1.35533 -0.6786,0.17994 -1.23382,-0.73315 -1.23382,-2.02907 0,-1.29593 0.57862,-1.99863 1.28581,-1.56155 0.7072,0.43707 1.72903,0.0776 2.27073,-0.79899 1.52768,-2.47183 -1.84489,-3.7356 -3.70148,-1.38703 -2.25449,2.85195 -2.20673,98.9618 0.0506,101.8133 1.35414,1.71057 2.32369,1.5797 4.78249,-0.64548 1.69621,-1.53505 2.671,-3.45927 2.16621,-4.27606 z m 33.60465,-20.26201 c -0.4802,-0.77696 -1.59022,-0.96945 -2.46674,-0.42773 -0.87651,0.5417 -1.14648,1.70848 -0.59992,2.59282 0.54656,0.88435 -0.008,1.39986 -1.23441,1.14561 -1.22547,-0.25428 -2.03886,0.48408 -1.80752,1.64077 0.23134,1.1567 -0.52577,1.91381 -1.68247,1.68247 -1.1567,-0.23134 -1.91381,0.52577 -1.68247,1.68247 0.23134,1.1567 -0.52577,1.91381 -1.68247,1.68247 -1.1567,-0.23134 -1.91381,0.52577 -1.68247,1.68247 0.23134,1.1567 -0.52577,1.91381 -1.68247,1.68247 -1.1567,-0.23134 -1.91381,0.52577 -1.68247,1.68247 0.23134,1.1567 -0.52577,1.91381 -1.68247,1.68247 -1.15669,-0.23134 -1.9138,0.52577 -1.68246,1.68247 0.23133,1.15669 -0.52578,1.9138 -1.68247,1.68246 -1.1567,-0.23133 -1.95587,0.39959 -1.77595,1.40206 0.17994,1.00248 -0.72439,1.82268 -2.00961,1.82268 -1.28522,0 -2.18955,-0.8202 -2.00961,-1.82268 0.17993,-1.00247 -0.61925,-1.63339 -1.77594,-1.40206 -1.1567,0.23134 -1.91381,-0.52577 -1.68247,-1.68246 0.23134,-1.1567 -0.52577,-1.91381 -1.68247,-1.68247 -1.1567,0.23134 -2.01343,-0.14722 -1.90385,-0.84124 0.45136,-2.8586 -0.30522,-3.91864 -2.03419,-2.85008 -1.13881,0.70382 0.59428,3.62181 4.56829,7.69156 l 6.40323,6.5575 13.01324,-12.93691 c 7.15727,-7.11529 12.62033,-13.57261 12.14014,-14.34959 z m 6.72693,-13.46453 c -0.47858,-0.77434 -1.58728,-0.96468 -2.46379,-0.42295 -0.87652,0.5417 -1.14649,1.70848 -0.59992,2.59281 0.54655,0.88436 -0.008,1.39987 -1.23441,1.14561 -1.22548,-0.25427 -2.03887,0.48408 -1.80753,1.64078 0.23134,1.1567 -0.52577,1.91381 -1.68247,1.68247 -1.15669,-0.23134 -1.9138,0.52577 -1.68246,1.68247 0.23133,1.1567 -0.52578,1.91381 -1.68247,1.68247 -1.1567,-0.23134 -1.91381,0.52577 -1.68247,1.68247 0.23134,1.1567 -0.52577,1.91381 -1.68247,1.68247 -1.1567,-0.23134 -1.91381,0.52577 -1.68247,1.68247 0.23134,1.15669 -0.52577,1.9138 -1.68247,1.68246 -1.1567,-0.23133 -1.91381,0.52578 -1.68247,1.68247 0.23134,1.1567 -0.52577,1.91381 -1.68247,1.68247 -1.1567,-0.23134 -1.91381,0.52577 -1.68247,1.68247 0.23134,1.1567 -0.52577,1.91381 -1.68247,1.68247 -1.15669,-0.23134 -1.9138,0.52577 -1.68246,1.68247 0.23133,1.1567 -0.52578,1.91381 -1.68247,1.68247 -1.1567,-0.23134 -1.95587,0.39959 -1.77595,1.40205 0.17994,1.00248 -0.72439,1.82269 -2.00961,1.82269 -1.28522,0 -2.18955,-0.82021 -2.00961,-1.82269 0.17993,-1.00246 -0.61925,-1.63339 -1.77594,-1.40205 -1.1567,0.23134 -1.91381,-0.52577 -1.68247,-1.68247 0.23134,-1.1567 -0.52577,-1.91381 -1.68247,-1.68247 -1.1567,0.23134 -2.01343,-0.14722 -1.90385,-0.84123 0.45136,-2.8586 -0.30522,-3.91864 -2.03419,-2.85009 -1.13876,0.70379 0.59578,3.62333 4.57182,7.69518 l 6.40678,6.56112 16.37167,-16.31024 c 9.00442,-8.97064 15.98012,-16.94381 15.50156,-17.71815 z m 0,-6.72988 c -0.47858,-0.77433 -1.58728,-0.96467 -2.46379,-0.42295 -0.87652,0.5417 -1.14649,1.70848 -0.59992,2.59282 0.54655,0.88435 -0.008,1.39986 -1.23441,1.14561 -1.22548,-0.25427 -2.03887,0.48408 -1.80753,1.64078 0.23134,1.15669 -0.52577,1.9138 -1.68247,1.68246 -1.15669,-0.23133 -1.9138,0.52578 -1.68246,1.68247 0.23133,1.1567 -0.52578,1.91381 -1.68247,1.68247 -1.1567,-0.23134 -1.91381,0.52577 -1.68247,1.68247 0.23134,1.1567 -0.52577,1.91381 -1.68247,1.68247 -1.1567,-0.23134 -1.91381,0.52577 -1.68247,1.68247 0.23134,1.1567 -0.52577,1.91381 -1.68247,1.68247 -1.1567,-0.23134 -1.91381,0.52577 -1.68247,1.68247 0.23134,1.1567 -0.52577,1.91381 -1.68247,1.68247 -1.1567,-0.23134 -1.91381,0.52577 -1.68247,1.68247 0.23134,1.15669 -0.52577,1.9138 -1.68247,1.68246 -1.15669,-0.23133 -1.9138,0.52578 -1.68246,1.68247 0.23133,1.1567 -0.52578,1.91381 -1.68247,1.68247 -1.1567,-0.23134 -1.95587,0.39959 -1.77595,1.40205 0.17994,1.00249 -0.72439,1.82269 -2.00961,1.82269 -1.28522,0 -2.18955,-0.8202 -2.00961,-1.82269 0.17993,-1.00246 -0.61925,-1.63339 -1.77594,-1.40205 -1.1567,0.23134 -1.91381,-0.52577 -1.68247,-1.68247 0.23134,-1.15669 -0.52577,-1.9138 -1.68247,-1.68247 -1.1567,0.23134 -2.01343,-0.14721 -1.90385,-0.84123 0.45136,-2.8586 -0.30522,-3.91864 -2.03419,-2.85009 -1.13876,0.7038 0.59578,3.62334 4.57182,7.69518 l 6.40678,6.56112 16.37167,-16.31024 c 9.00442,-8.97064 15.98012,-16.94381 15.50156,-17.71815 z m 6.72789,-13.46294 c -0.47748,-0.77259 -1.58529,-0.96148 -2.46181,-0.41976 -0.87651,0.5417 -1.14648,1.70848 -0.59991,2.59282 0.54655,0.88435 -0.008,1.39986 -1.23441,1.14561 -1.22548,-0.25428 -2.03887,0.48408 -1.80753,1.64077 0.23134,1.1567 -0.52577,1.91381 -1.68247,1.68247 -1.1567,-0.23134 -1.91381,0.52577 -1.68247,1.68247 0.23134,1.1567 -0.52577,1.91381 -1.68247,1.68247 -1.1567,-0.23134 -1.91381,0.52577 -1.68247,1.68247 0.23134,1.1567 -0.52577,1.91381 -1.68247,1.68247 -1.15669,-0.23134 -1.9138,0.52577 -1.68246,1.68247 0.23133,1.1567 -0.52578,1.91381 -1.68247,1.68247 -1.1567,-0.23134 -1.91381,0.52577 -1.68247,1.68247 0.23134,1.15669 -0.52577,1.9138 -1.68247,1.68246 -1.1567,-0.23133 -1.91381,0.52578 -1.68247,1.68247 0.23134,1.1567 -0.52577,1.91381 -1.68247,1.68247 -1.1567,-0.23134 -1.91381,0.52577 -1.68247,1.68247 0.23134,1.1567 -0.52577,1.91381 -1.68247,1.68247 -1.1567,-0.23134 -1.91381,0.52577 -1.68247,1.68247 0.23134,1.1567 -0.52577,1.91381 -1.68247,1.68247 -1.15669,-0.23134 -1.9138,0.52577 -1.68246,1.68247 0.23133,1.1567 -0.52578,1.91381 -1.68247,1.68247 -1.1567,-0.23134 -1.95587,0.39958 -1.77595,1.40205 0.17994,1.00248 -0.72439,1.82268 -2.00961,1.82268 -1.28522,0 -2.18955,-0.8202 -2.00961,-1.82268 0.17993,-1.00247 -0.61925,-1.63339 -1.77594,-1.40205 -1.1567,0.23134 -1.91381,-0.52577 -1.68247,-1.68247 0.23134,-1.1567 -0.52577,-1.91381 -1.68247,-1.68247 -1.1567,0.23134 -2.01343,-0.14722 -1.90385,-0.84124 0.45136,-2.85859 -0.30522,-3.91863 -2.03419,-2.85008 -1.13875,0.70378 0.59677,3.62436 4.57423,7.69763 l 6.40916,6.56358 19.73224,-19.68083 c 10.85275,-10.82447 19.34158,-20.31295 18.86409,-21.08554 z m 0,-6.72988 c -0.47748,-0.77259 -1.58529,-0.96148 -2.46181,-0.41976 -0.87651,0.54171 -1.14648,1.70848 -0.59991,2.59282 0.54655,0.88436 -0.008,1.39987 -1.23441,1.14561 -1.22548,-0.25427 -2.03887,0.48408 -1.80753,1.64078 0.23134,1.1567 -0.52577,1.91381 -1.68247,1.68247 -1.1567,-0.23134 -1.91381,0.52577 -1.68247,1.68247 0.23134,1.15669 -0.52577,1.9138 -1.68247,1.68246 -1.1567,-0.23133 -1.91381,0.52578 -1.68247,1.68247 0.23134,1.1567 -0.52577,1.91381 -1.68247,1.68247 -1.15669,-0.23134 -1.9138,0.52577 -1.68246,1.68247 0.23133,1.1567 -0.52578,1.91381 -1.68247,1.68247 -1.1567,-0.23134 -1.91381,0.52577 -1.68247,1.68247 0.23134,1.1567 -0.52577,1.91381 -1.68247,1.68247 -1.1567,-0.23134 -1.91381,0.52577 -1.68247,1.68247 0.23134,1.1567 -0.52577,1.91381 -1.68247,1.68247 -1.1567,-0.23134 -1.91381,0.52577 -1.68247,1.68247 0.23134,1.15669 -0.52577,1.9138 -1.68247,1.68246 -1.1567,-0.23133 -1.91381,0.52578 -1.68247,1.68247 0.23134,1.1567 -0.52577,1.91381 -1.68247,1.68247 -1.15669,-0.23134 -1.9138,0.52577 -1.68246,1.68247 0.23133,1.1567 -0.52578,1.91381 -1.68247,1.68247 -1.1567,-0.23134 -1.95587,0.39959 -1.77595,1.40205 0.17994,1.00249 -0.72439,1.82269 -2.00961,1.82269 -1.28522,0 -2.18955,-0.8202 -2.00961,-1.82269 0.17993,-1.00246 -0.61925,-1.63339 -1.77594,-1.40205 -1.1567,0.23134 -1.91381,-0.52577 -1.68247,-1.68247 0.23134,-1.1567 -0.52577,-1.91381 -1.68247,-1.68247 -1.1567,0.23134 -2.01343,-0.14721 -1.90385,-0.84123 0.45136,-2.8586 -0.30522,-3.91864 -2.03419,-2.85009 -1.13875,0.70378 0.59677,3.62436 4.57423,7.69763 l 6.40916,6.56359 19.73224,-19.68084 c 10.85275,-10.82446 19.34158,-20.31295 18.86409,-21.08554 z m 0,-6.72988 c -0.47748,-0.77259 -1.58529,-0.96148 -2.46181,-0.41975 -0.87651,0.5417 -1.14648,1.70848 -0.59991,2.59281 0.54655,0.88436 -0.008,1.39987 -1.23441,1.14561 -1.22548,-0.25427 -2.03887,0.48408 -1.80753,1.64078 0.23134,1.1567 -0.52577,1.91381 -1.68247,1.68247 -1.1567,-0.23134 -1.91381,0.52577 -1.68247,1.68247 0.23134,1.1567 -0.52577,1.91381 -1.68247,1.68247 -1.1567,-0.23134 -1.91381,0.52577 -1.68247,1.68247 0.23134,1.1567 -0.52577,1.91381 -1.68247,1.68247 -1.15669,-0.23134 -1.9138,0.52577 -1.68246,1.68247 0.23133,1.15669 -0.52578,1.9138 -1.68247,1.68246 -1.1567,-0.23133 -1.91381,0.52578 -1.68247,1.68247 0.23134,1.1567 -0.52577,1.91381 -1.68247,1.68247 -1.1567,-0.23134 -1.91381,0.52577 -1.68247,1.68247 0.23134,1.1567 -0.52577,1.91381 -1.68247,1.68247 -1.1567,-0.23134 -1.91381,0.52577 -1.68247,1.68247 0.23134,1.1567 -0.52577,1.91381 -1.68247,1.68247 -1.1567,-0.23134 -1.91381,0.52577 -1.68247,1.68247 0.23134,1.1567 -0.52577,1.91381 -1.68247,1.68247 -1.15669,-0.23134 -1.9138,0.52577 -1.68246,1.68247 0.23133,1.15669 -0.52578,1.9138 -1.68247,1.68246 -1.1567,-0.23133 -1.95587,0.39959 -1.77595,1.40206 0.17994,1.00248 -0.72439,1.82268 -2.00961,1.82268 -1.28522,0 -2.18955,-0.8202 -2.00961,-1.82268 0.17993,-1.00247 -0.61925,-1.63339 -1.77594,-1.40206 -1.1567,0.23134 -1.91381,-0.52577 -1.68247,-1.68246 0.23134,-1.1567 -0.52577,-1.91381 -1.68247,-1.68247 -1.1567,0.23134 -2.01343,-0.14722 -1.90385,-0.84124 0.45136,-2.8586 -0.30522,-3.91864 -2.03419,-2.85008 -1.13875,0.70377 0.59677,3.62435 4.57423,7.69763 l 6.40916,6.56358 19.73224,-19.68083 c 10.85275,-10.82447 19.34158,-20.31296 18.86409,-21.08555 z m 0,-6.72987 c -0.47748,-0.77259 -1.58529,-0.96148 -2.46181,-0.41976 -0.87651,0.5417 -1.14648,1.70848 -0.59991,2.59282 0.54655,0.88435 -0.008,1.39986 -1.23441,1.14561 -1.22548,-0.25427 -2.03887,0.48408 -1.80753,1.64078 0.23134,1.15669 -0.52577,1.9138 -1.68247,1.68246 -1.1567,-0.23133 -1.91381,0.52578 -1.68247,1.68247 0.23134,1.1567 -0.52577,1.91381 -1.68247,1.68247 -1.1567,-0.23134 -1.91381,0.52577 -1.68247,1.68247 0.23134,1.1567 -0.52577,1.91381 -1.68247,1.68247 -1.15669,-0.23134 -1.9138,0.52577 -1.68246,1.68247 0.23133,1.1567 -0.52578,1.91381 -1.68247,1.68247 -1.1567,-0.23134 -1.91381,0.52577 -1.68247,1.68247 0.23134,1.1567 -0.52577,1.91381 -1.68247,1.68247 -1.1567,-0.23134 -1.91381,0.52577 -1.68247,1.68247 0.23134,1.15669 -0.52577,1.9138 -1.68247,1.68246 -1.1567,-0.23133 -1.91381,0.52578 -1.68247,1.68247 0.23134,1.1567 -0.52577,1.91381 -1.68247,1.68247 -1.1567,-0.23134 -1.91381,0.52577 -1.68247,1.68247 0.23134,1.1567 -0.52577,1.91381 -1.68247,1.68247 -1.15669,-0.23134 -1.9138,0.52577 -1.68246,1.68247 0.23133,1.1567 -0.52578,1.91381 -1.68247,1.68247 -1.1567,-0.23134 -1.95587,0.39959 -1.77595,1.40205 0.17994,1.00248 -0.72439,1.82269 -2.00961,1.82269 -1.28522,0 -2.18955,-0.82021 -2.00961,-1.82269 0.17993,-1.00246 -0.61925,-1.63339 -1.77594,-1.40205 -1.1567,0.23134 -1.91381,-0.52577 -1.68247,-1.68247 0.23134,-1.1567 -0.52577,-1.91381 -1.68247,-1.68247 -1.1567,0.23134 -2.01343,-0.14722 -1.90385,-0.84123 0.45136,-2.8586 -0.30522,-3.91864 -2.03419,-2.85009 -1.13875,0.70378 0.59677,3.62436 4.57423,7.69763 l 6.40916,6.56358 19.73224,-19.68083 c 10.85275,-10.82447 19.34158,-20.31295 18.86409,-21.08554 z m 0,-6.72988 c -0.47748,-0.77259 -1.58529,-0.96148 -2.46181,-0.41976 -0.87651,0.54171 -1.14648,1.70848 -0.59991,2.59282 0.54655,0.88436 -0.008,1.39987 -1.23441,1.14561 -1.22548,-0.25427 -2.03887,0.48408 -1.80753,1.64078 0.23134,1.1567 -0.52577,1.91381 -1.68247,1.68247 -1.1567,-0.23134 -1.91381,0.52577 -1.68247,1.68247 0.23134,1.1567 -0.52577,1.91381 -1.68247,1.68247 -1.1567,-0.23134 -1.91381,0.52577 -1.68247,1.68247 0.23134,1.15669 -0.52577,1.9138 -1.68247,1.68246 -1.15669,-0.23133 -1.9138,0.52578 -1.68246,1.68247 0.23133,1.1567 -0.52578,1.91381 -1.68247,1.68247 -1.1567,-0.23134 -1.91381,0.52577 -1.68247,1.68247 0.23134,1.1567 -0.52577,1.91381 -1.68247,1.68247 -1.1567,-0.23134 -1.91381,0.52577 -1.68247,1.68247 0.23134,1.1567 -0.52577,1.91381 -1.68247,1.68247 -1.1567,-0.23134 -1.91381,0.52577 -1.68247,1.68247 0.23134,1.1567 -0.52577,1.91381 -1.68247,1.68247 -1.1567,-0.23134 -1.91381,0.52577 -1.68247,1.68247 0.23134,1.15669 -0.52577,1.9138 -1.68247,1.68246 -1.15669,-0.23133 -1.9138,0.52578 -1.68246,1.68247 0.23133,1.1567 -0.52578,1.91381 -1.68247,1.68247 -1.1567,-0.23134 -1.95587,0.39959 -1.77595,1.40205 0.17994,1.00249 -0.72439,1.82269 -2.00961,1.82269 -1.28522,0 -2.18955,-0.8202 -2.00961,-1.82269 0.17993,-1.00246 -0.61925,-1.63339 -1.77594,-1.40205 -1.1567,0.23134 -1.91381,-0.52577 -1.68247,-1.68247 0.23134,-1.15669 -0.52577,-1.9138 -1.68247,-1.68247 -1.1567,0.23134 -2.01343,-0.14721 -1.90385,-0.84123 0.45136,-2.8586 -0.30522,-3.91864 -2.03419,-2.85009 -1.13875,0.70378 0.59677,3.62436 4.57423,7.69764 l 6.40916,6.56358 19.73224,-19.68083 c 10.85275,-10.82447 19.34158,-20.31296 18.86409,-21.08555 z m 0,-6.72987 c -0.47748,-0.77259 -1.58529,-0.96148 -2.46181,-0.41976 -0.87651,0.5417 -1.14648,1.70848 -0.59991,2.59282 0.54655,0.88435 -0.008,1.39986 -1.23441,1.14561 -1.22548,-0.25428 -2.03887,0.48408 -1.80753,1.64077 0.23134,1.1567 -0.52577,1.91381 -1.68247,1.68247 -1.1567,-0.23134 -1.91381,0.52577 -1.68247,1.68247 0.23134,1.1567 -0.52577,1.91381 -1.68247,1.68247 -1.1567,-0.23134 -1.91381,0.52577 -1.68247,1.68247 0.23134,1.1567 -0.52577,1.91381 -1.68247,1.68247 -1.15669,-0.23134 -1.9138,0.52577 -1.68246,1.68247 0.23133,1.1567 -0.52578,1.91381 -1.68247,1.68247 -1.1567,-0.23134 -1.91381,0.52577 -1.68247,1.68247 0.23134,1.15669 -0.52577,1.9138 -1.68247,1.68246 -1.1567,-0.23133 -1.91381,0.52578 -1.68247,1.68247 0.23134,1.1567 -0.52577,1.91381 -1.68247,1.68247 -1.1567,-0.23134 -1.91381,0.52577 -1.68247,1.68247 0.23134,1.1567 -0.52577,1.91381 -1.68247,1.68247 -1.1567,-0.23134 -1.91381,0.52577 -1.68247,1.68247 0.23134,1.1567 -0.52577,1.91381 -1.68247,1.68247 -1.15669,-0.23134 -1.9138,0.52577 -1.68246,1.68247 0.23133,1.1567 -0.52578,1.91381 -1.68247,1.68247 -1.1567,-0.23134 -1.95587,0.39958 -1.77595,1.40205 0.17994,1.00248 -0.72439,1.82268 -2.00961,1.82268 -1.28522,0 -2.18955,-0.8202 -2.00961,-1.82268 0.17993,-1.00247 -0.61925,-1.63339 -1.77594,-1.40205 -1.1567,0.23134 -1.91381,-0.52577 -1.68247,-1.68247 0.23134,-1.1567 -0.52577,-1.91381 -1.68247,-1.68247 -1.1567,0.23134 -2.01343,-0.14722 -1.90385,-0.84124 0.45136,-2.85859 -0.30522,-3.91863 -2.03419,-2.85008 -1.13875,0.70378 0.59677,3.62436 4.57423,7.69763 l 6.40916,6.56358 19.73224,-19.68083 c 10.85275,-10.82447 19.34158,-20.31295 18.86409,-21.08554 z m 0,-6.72988 c -0.47748,-0.77259 -1.58529,-0.96148 -2.46181,-0.41976 -0.87651,0.54171 -1.14648,1.70848 -0.59991,2.59282 0.54655,0.88436 -0.008,1.39987 -1.23441,1.14561 -1.22548,-0.25427 -2.03887,0.48408 -1.80753,1.64078 0.23134,1.1567 -0.52577,1.91381 -1.68247,1.68247 -1.1567,-0.23134 -1.91381,0.52577 -1.68247,1.68247 0.23134,1.15669 -0.52577,1.9138 -1.68247,1.68246 -1.1567,-0.23133 -1.91381,0.52578 -1.68247,1.68247 0.23134,1.1567 -0.52577,1.91381 -1.68247,1.68247 -1.15669,-0.23134 -1.9138,0.52577 -1.68246,1.68247 0.23133,1.1567 -0.52578,1.91381 -1.68247,1.68247 -1.1567,-0.23134 -1.91381,0.52577 -1.68247,1.68247 0.23134,1.1567 -0.52577,1.91381 -1.68247,1.68247 -1.1567,-0.23134 -1.91381,0.52577 -1.68247,1.68247 0.23134,1.1567 -0.52577,1.91381 -1.68247,1.68247 -1.1567,-0.23134 -1.91381,0.52577 -1.68247,1.68247 0.23134,1.15669 -0.52577,1.9138 -1.68247,1.68246 -1.1567,-0.23133 -1.91381,0.52578 -1.68247,1.68247 0.23134,1.1567 -0.52577,1.91381 -1.68247,1.68247 -1.15669,-0.23134 -1.9138,0.52577 -1.68246,1.68247 0.23133,1.1567 -0.52578,1.91381 -1.68247,1.68247 -1.1567,-0.23134 -1.95587,0.39959 -1.77595,1.40205 0.17994,1.00249 -0.72439,1.82269 -2.00961,1.82269 -1.28522,0 -2.18955,-0.8202 -2.00961,-1.82269 0.17993,-1.00246 -0.61925,-1.63339 -1.77594,-1.40205 -1.1567,0.23134 -1.91381,-0.52577 -1.68247,-1.68247 0.23134,-1.1567 -0.52577,-1.91381 -1.68247,-1.68247 -1.1567,0.23134 -2.01343,-0.14721 -1.90385,-0.84123 0.45136,-2.8586 -0.30522,-3.91864 -2.03419,-2.85009 -1.13875,0.70378 0.59677,3.62436 4.57423,7.69763 l 6.40916,6.56359 19.73224,-19.68084 c 10.85275,-10.82446 19.34158,-20.31295 18.86409,-21.08554 z m 0,-6.72988 c -0.47748,-0.77259 -1.58529,-0.96148 -2.46181,-0.41975 -0.87651,0.5417 -1.14648,1.70848 -0.59991,2.59281 0.54655,0.88436 -0.008,1.39987 -1.23441,1.14561 -1.22548,-0.25427 -2.03887,0.48408 -1.80753,1.64078 0.23134,1.1567 -0.52577,1.91381 -1.68247,1.68247 -1.1567,-0.23134 -1.91381,0.52577 -1.68247,1.68247 0.23134,1.1567 -0.52577,1.91381 -1.68247,1.68247 -1.1567,-0.23134 -1.91381,0.52577 -1.68247,1.68247 0.23134,1.1567 -0.52577,1.91381 -1.68247,1.68247 -1.15669,-0.23134 -1.9138,0.52577 -1.68246,1.68247 0.23133,1.15669 -0.52578,1.9138 -1.68247,1.68246 -1.1567,-0.23133 -1.91381,0.52578 -1.68247,1.68247 0.23134,1.1567 -0.52577,1.91381 -1.68247,1.68247 -1.1567,-0.23134 -1.91381,0.52577 -1.68247,1.68247 0.23134,1.1567 -0.52577,1.91381 -1.68247,1.68247 -1.1567,-0.23134 -1.91381,0.52577 -1.68247,1.68247 0.23134,1.1567 -0.52577,1.91381 -1.68247,1.68247 -1.1567,-0.23134 -1.91381,0.52577 -1.68247,1.68247 0.23134,1.1567 -0.52577,1.91381 -1.68247,1.68247 -1.15669,-0.23134 -1.9138,0.52577 -1.68246,1.68247 0.23133,1.15669 -0.52578,1.9138 -1.68247,1.68246 -1.1567,-0.23133 -1.95587,0.39959 -1.77595,1.40206 0.17994,1.00248 -0.72439,1.82268 -2.00961,1.82268 -1.28522,0 -2.18955,-0.8202 -2.00961,-1.82268 0.17993,-1.00247 -0.61925,-1.63339 -1.77594,-1.40206 -1.1567,0.23134 -1.91381,-0.52577 -1.68247,-1.68246 0.23134,-1.1567 -0.52577,-1.91381 -1.68247,-1.68247 -1.1567,0.23134 -2.01343,-0.14722 -1.90385,-0.84124 0.45136,-2.8586 -0.30522,-3.91864 -2.03419,-2.85008 -1.13875,0.70377 0.59677,3.62435 4.57423,7.69763 l 6.40916,6.56358 19.73224,-19.68083 c 10.85275,-10.82447 19.34158,-20.31296 18.86409,-21.08555 z m 0,-6.72987 c -0.47748,-0.77259 -1.58529,-0.96148 -2.46181,-0.41976 -0.87651,0.5417 -1.14648,1.70848 -0.59991,2.59282 0.54655,0.88435 -0.008,1.39986 -1.23441,1.14561 -1.22548,-0.25427 -2.03887,0.48408 -1.80753,1.64078 0.23134,1.15669 -0.52577,1.9138 -1.68247,1.68246 -1.1567,-0.23133 -1.91381,0.52578 -1.68247,1.68247 0.23134,1.1567 -0.52577,1.91381 -1.68247,1.68247 -1.1567,-0.23134 -1.91381,0.52577 -1.68247,1.68247 0.23134,1.1567 -0.52577,1.91381 -1.68247,1.68247 -1.15669,-0.23134 -1.9138,0.52577 -1.68246,1.68247 0.23133,1.1567 -0.52578,1.91381 -1.68247,1.68247 -1.1567,-0.23134 -1.91381,0.52577 -1.68247,1.68247 0.23134,1.1567 -0.52577,1.91381 -1.68247,1.68247 -1.1567,-0.23134 -1.91381,0.52577 -1.68247,1.68247 0.23134,1.15669 -0.52577,1.9138 -1.68247,1.68246 -1.1567,-0.23133 -1.91381,0.52578 -1.68247,1.68247 0.23134,1.1567 -0.52577,1.91381 -1.68247,1.68247 -1.1567,-0.23134 -1.91381,0.52577 -1.68247,1.68247 0.23134,1.1567 -0.52577,1.91381 -1.68247,1.68247 -1.15669,-0.23134 -1.9138,0.52577 -1.68246,1.68247 0.23133,1.1567 -0.52578,1.91381 -1.68247,1.68247 -1.1567,-0.23134 -1.95587,0.39959 -1.77595,1.40205 0.17994,1.00248 -0.72439,1.82269 -2.00961,1.82269 -1.28522,0 -2.18955,-0.82021 -2.00961,-1.82269 0.17993,-1.00246 -0.61925,-1.63339 -1.77594,-1.40205 -1.1567,0.23134 -1.91381,-0.52577 -1.68247,-1.68247 0.23134,-1.1567 -0.52577,-1.91381 -1.68247,-1.68247 -1.1567,0.23134 -2.01343,-0.14722 -1.90385,-0.84123 0.45136,-2.8586 -0.30522,-3.91864 -2.03419,-2.85009 -1.13875,0.70378 0.59677,3.62436 4.57423,7.69763 l 6.40916,6.56358 19.73224,-19.68083 c 10.85275,-10.82447 19.34158,-20.31295 18.86409,-21.08554 z m 0,-6.72988 c -0.47748,-0.77259 -1.58529,-0.96148 -2.46181,-0.41976 -0.87651,0.54171 -1.14648,1.70848 -0.59991,2.59282 0.54655,0.88436 -0.008,1.39987 -1.23441,1.14561 -1.22548,-0.25427 -2.03887,0.48408 -1.80753,1.64078 0.23134,1.1567 -0.52577,1.91381 -1.68247,1.68247 -1.1567,-0.23134 -1.91381,0.52577 -1.68247,1.68247 0.23134,1.1567 -0.52577,1.91381 -1.68247,1.68247 -1.1567,-0.23134 -1.91381,0.52577 -1.68247,1.68247 0.23134,1.15669 -0.52577,1.9138 -1.68247,1.68246 -1.15669,-0.23133 -1.9138,0.52578 -1.68246,1.68247 0.23133,1.1567 -0.52578,1.91381 -1.68247,1.68247 -1.1567,-0.23134 -1.91381,0.52577 -1.68247,1.68247 0.23134,1.1567 -0.52577,1.91381 -1.68247,1.68247 -1.1567,-0.23134 -1.91381,0.52577 -1.68247,1.68247 0.23134,1.1567 -0.52577,1.91381 -1.68247,1.68247 -1.1567,-0.23134 -1.91381,0.52577 -1.68247,1.68247 0.23134,1.1567 -0.52577,1.91381 -1.68247,1.68247 -1.1567,-0.23134 -1.91381,0.52577 -1.68247,1.68247 0.23134,1.15669 -0.52577,1.9138 -1.68247,1.68246 -1.15669,-0.23133 -1.9138,0.52578 -1.68246,1.68247 0.23133,1.1567 -0.52578,1.91381 -1.68247,1.68247 -1.1567,-0.23134 -1.95587,0.39959 -1.77595,1.40205 0.17994,1.00249 -0.72439,1.82269 -2.00961,1.82269 -1.28522,0 -2.18955,-0.8202 -2.00961,-1.82269 0.17993,-1.00246 -0.61925,-1.63339 -1.77594,-1.40205 -1.1567,0.23134 -1.91381,-0.52577 -1.68247,-1.68247 0.23134,-1.15669 -0.52577,-1.9138 -1.68247,-1.68247 -1.1567,0.23134 -2.01343,-0.14721 -1.90385,-0.84123 0.45136,-2.8586 -0.30522,-3.91864 -2.03419,-2.85009 -1.13875,0.70378 0.59677,3.62436 4.57423,7.69764 l 6.40916,6.56358 19.73224,-19.68083 c 10.85275,-10.82447 19.34158,-20.31296 18.86409,-21.08555 z m 0,-6.72987 c -0.47748,-0.77259 -1.58529,-0.96148 -2.46181,-0.41976 -0.87651,0.5417 -1.14648,1.70848 -0.59991,2.59282 0.54655,0.88435 -0.008,1.39986 -1.23441,1.14561 -1.22548,-0.25428 -2.03887,0.48408 -1.80753,1.64077 0.23134,1.1567 -0.52577,1.91381 -1.68247,1.68247 -1.1567,-0.23134 -1.91381,0.52577 -1.68247,1.68247 0.23134,1.1567 -0.52577,1.91381 -1.68247,1.68247 -1.1567,-0.23134 -1.91381,0.52577 -1.68247,1.68247 0.23134,1.1567 -0.52577,1.91381 -1.68247,1.68247 -1.15669,-0.23134 -1.9138,0.52577 -1.68246,1.68247 0.23133,1.1567 -0.52578,1.91381 -1.68247,1.68247 -1.1567,-0.23134 -1.91381,0.52577 -1.68247,1.68247 0.23134,1.15669 -0.52577,1.9138 -1.68247,1.68246 -1.1567,-0.23133 -1.91381,0.52578 -1.68247,1.68247 0.23134,1.1567 -0.52577,1.91381 -1.68247,1.68247 -1.1567,-0.23134 -1.91381,0.52577 -1.68247,1.68247 0.23134,1.1567 -0.52577,1.91381 -1.68247,1.68247 -1.1567,-0.23134 -1.91381,0.52577 -1.68247,1.68247 0.23134,1.1567 -0.52577,1.91381 -1.68247,1.68247 -1.15669,-0.23134 -1.9138,0.52577 -1.68246,1.68247 0.23133,1.1567 -0.52578,1.91381 -1.68247,1.68247 -1.1567,-0.23134 -1.95587,0.39958 -1.77595,1.40205 0.17994,1.00248 -0.72439,1.82268 -2.00961,1.82268 -1.28522,0 -2.18955,-0.8202 -2.00961,-1.82268 0.17993,-1.00247 -0.61925,-1.63339 -1.77594,-1.40205 -1.1567,0.23134 -1.91381,-0.52577 -1.68247,-1.68247 0.23134,-1.1567 -0.52577,-1.91381 -1.68247,-1.68247 -1.1567,0.23134 -2.01343,-0.14722 -1.90385,-0.84124 0.45136,-2.85859 -0.30522,-3.91863 -2.03419,-2.85008 -1.13875,0.70378 0.59677,3.62436 4.57423,7.69763 l 6.40916,6.56358 19.73224,-19.68083 c 10.85275,-10.82447 19.34158,-20.31295 18.86409,-21.08554 z m 0,-6.72988 c -0.47748,-0.77259 -1.58529,-0.96148 -2.46181,-0.41976 -0.87651,0.54171 -1.14648,1.70848 -0.59991,2.59282 0.54655,0.88436 -0.008,1.39987 -1.23441,1.14561 -1.22548,-0.25427 -2.03887,0.48408 -1.80753,1.64078 0.23134,1.1567 -0.52577,1.91381 -1.68247,1.68247 -1.1567,-0.23134 -1.91381,0.52577 -1.68247,1.68247 0.23134,1.15669 -0.52577,1.9138 -1.68247,1.68246 -1.1567,-0.23133 -1.91381,0.52578 -1.68247,1.68247 0.23134,1.1567 -0.52577,1.91381 -1.68247,1.68247 -1.15669,-0.23134 -1.9138,0.52577 -1.68246,1.68247 0.23133,1.1567 -0.52578,1.91381 -1.68247,1.68247 -1.1567,-0.23134 -1.91381,0.52577 -1.68247,1.68247 0.23134,1.1567 -0.52577,1.91381 -1.68247,1.68247 -1.1567,-0.23134 -1.91381,0.52577 -1.68247,1.68247 0.23134,1.1567 -0.52577,1.91381 -1.68247,1.68247 -1.1567,-0.23134 -1.91381,0.52577 -1.68247,1.68247 0.23134,1.15669 -0.52577,1.9138 -1.68247,1.68246 -1.1567,-0.23133 -1.91381,0.52578 -1.68247,1.68247 0.23134,1.1567 -0.52577,1.91381 -1.68247,1.68247 -1.15669,-0.23134 -1.9138,0.52577 -1.68246,1.68247 0.23133,1.1567 -0.52578,1.91381 -1.68247,1.68247 -1.1567,-0.23134 -1.95587,0.39959 -1.77595,1.40205 0.17994,1.00249 -0.72439,1.82269 -2.00961,1.82269 -1.28522,0 -2.18955,-0.8202 -2.00961,-1.82269 0.17993,-1.00246 -0.61925,-1.63339 -1.77594,-1.40205 -1.1567,0.23134 -1.91381,-0.52577 -1.68247,-1.68247 0.23134,-1.1567 -0.52577,-1.91381 -1.68247,-1.68247 -1.1567,0.23134 -2.01343,-0.14721 -1.90385,-0.84123 0.45136,-2.8586 -0.30522,-3.91864 -2.03419,-2.85009 -1.13875,0.70378 0.59677,3.62436 4.57423,7.69763 l 6.40916,6.56359 19.73224,-19.68084 c 10.85275,-10.82446 19.34158,-20.31295 18.86409,-21.08554 z m -17.43507,12.87289 c 11.55307,-11.61003 19.68066,-20.61437 18.06129,-20.00962 -1.61938,0.60473 -2.94433,1.90181 -2.94433,2.88241 0,0.98057 -0.52013,1.26272 -1.15587,0.627 -0.63572,-0.63574 -4.04272,1.66307 -7.57111,5.10845 -3.52837,3.44538 -6.41524,5.6394 -6.41524,4.87561 0,-0.76378 -1.145,-0.43842 -2.54444,0.72301 -1.98863,1.65041 -2.11019,2.63498 -0.55645,4.50711 1.56796,1.88928 1.48347,2.28648 -0.39987,1.87986 -1.31334,-0.28355 -2.1986,0.43084 -1.96726,1.58754 0.23134,1.1567 -0.52577,1.91381 -1.68247,1.68247 -1.1567,-0.23134 -1.91381,0.52577 -1.68247,1.68247 0.23134,1.1567 -0.52577,1.91381 -1.68247,1.68247 -1.1567,-0.23134 -1.91381,0.52577 -1.68247,1.68247 0.23134,1.1567 -0.52577,1.91381 -1.68247,1.68247 -1.15669,-0.23134 -1.9138,0.52577 -1.68246,1.68247 0.23133,1.15669 -0.52578,1.9138 -1.68247,1.68246 -1.1567,-0.23133 -1.95587,0.39959 -1.77595,1.40206 0.17994,1.00248 -0.72439,1.82268 -2.00961,1.82268 -1.28522,0 -2.18955,-0.8202 -2.00961,-1.82268 0.17993,-1.00247 -0.49306,-1.67546 -1.49553,-1.49553 -1.00248,0.17994 -1.82268,-0.76645 -1.82268,-2.10309 0,-1.33662 0.37199,-2.05823 0.82664,-1.60359 0.45466,0.45465 1.77528,0.0394 2.93474,-0.92292 1.46287,-1.21409 2.44701,-1.20122 3.21538,0.0421 0.609,0.98539 1.84883,1.33331 2.75519,0.77314 1.02007,-0.63043 0.81553,-2.08314 -0.53687,-3.81299 -1.95459,-2.5001 -1.87458,-2.55125 0.75953,-0.48545 2.67972,2.10159 3.6788,1.50139 3.14356,-1.88847 -0.10953,-0.69401 0.36859,-1.17219 1.06261,-1.06261 2.84035,0.44848 3.92179,-0.30015 2.87659,-1.9913 -0.72501,-1.1731 -2.2121,-0.79248 -4.30547,1.10198 -1.75884,1.59172 -3.19791,2.28081 -3.19791,1.53128 0,-0.74952 -1.51422,0.008 -3.36493,1.68247 -1.85072,1.67488 -3.36494,2.45663 -3.36494,1.73722 0,-0.71939 -1.20951,-0.30419 -2.6878,0.92267 -1.47828,1.22687 -4.25802,2.47031 -6.17722,2.7632 -4.53528,0.69213 -8.19364,3.77324 -6.92241,5.83012 0.55599,0.89962 2.65019,0.0683 4.71533,-1.87181 l 3.71513,-3.49018 4.83449,5.04611 c 2.65898,2.77537 4.89348,5.04613 4.96559,5.04613 0.0722,0 9.58361,-9.49912 21.13671,-21.10915 z m -2.35869,-4.43575 c 0.48591,-0.78621 1.58827,-0.99391 2.44969,-0.46151 2.20131,1.36047 1.95345,1.89102 -0.88348,1.89102 -1.34734,0 -2.05212,-0.64327 -1.56621,-1.42951 z m -17.10378,15.30638 c -0.5417,-0.87651 -1.70207,-1.15043 -2.57858,-0.60871 -0.87652,0.5417 -1.15044,1.70207 -0.60872,2.57858 0.5417,0.87652 1.70207,1.15044 2.57859,0.60872 0.87651,-0.5417 1.15043,-1.70207 0.60871,-2.57859 z M 338.52966,757.96361 c -2.09278,-2.66849 -2.03327,-2.728 0.63523,-0.63523 2.80257,2.19793 3.69383,3.57955 2.30909,3.57955 -0.34937,0 -1.67431,-1.32494 -2.94432,-2.94432 z m -6.72988,-3.36493 c -2.09277,-2.6685 -2.03326,-2.72801 0.63523,-0.63524 1.61938,1.27001 2.94432,2.59496 2.94432,2.94432 0,1.38474 -1.38162,0.49349 -3.57955,-2.30908 z m -16.82469,-10.09482 c -2.09277,-2.6685 -2.03326,-2.728 0.63523,-0.63523 2.80258,2.19793 3.69383,3.57955 2.30909,3.57955 -0.34936,0 -1.67431,-1.32494 -2.94432,-2.94432 z m 137.05542,-19.695 c 0,-1.34734 0.64328,-2.05212 1.42951,-1.56621 0.78622,0.48592 0.99392,1.58827 0.46152,2.44969 -1.36048,2.20131 -1.89103,1.95345 -1.89103,-0.88348 z m 0,-6.72987 c 0,-1.34734 0.64328,-2.05213 1.42951,-1.56621 0.78622,0.48591 0.99392,1.58826 0.46152,2.44969 -1.36048,2.20131 -1.89103,1.95345 -1.89103,-0.88348 z m 0,-6.72988 c 0,-1.34734 0.64328,-2.05212 1.42951,-1.56621 0.78622,0.48591 0.99392,1.58827 0.46152,2.44969 -1.36048,2.20131 -1.89103,1.95345 -1.89103,-0.88348 z m 0.32235,-59.86948 c 0.40431,-0.65421 -3.65771,-2.05372 -9.02672,-3.11001 -7.203,-1.41709 -17.0073,-6.15136 -37.40285,-18.06094 -48.65811,-28.41293 -132.45128,-76.78899 -172.44027,-99.5544 -21.34203,-12.14984 -40.64836,-23.82251 -42.90296,-25.93923 -3.99335,-3.74918 -4.08942,-4.43522 -3.71968,-26.56191 0.20874,-12.49233 0.68764,-42.39822 1.06419,-66.45752 0.37655,-24.05931 0.7736,-46.1954 0.88231,-49.19133 l 0.19765,-5.44712 8.83296,5.59067 c 4.85813,3.07487 22.08241,13.03634 38.27617,22.1366 40.34702,22.67344 90.35076,51.47299 129.55012,74.61409 47.55884,28.07608 64.33881,37.25844 68.13977,37.28753 6.80164,0.0522 7.73063,2.22091 8.34303,19.47759 0.32536,9.16836 0.73004,16.66973 0.89928,16.66973 0.28627,0 0.98835,24.10109 2.1814,74.88434 0.27193,11.57495 1.04297,21.93291 1.7134,23.01771 0.67044,1.08479 0.41276,2.47062 -0.57263,3.07963 -1.26025,0.77888 -1.24417,1.76689 0.0542,3.3314 1.33952,1.61401 1.33952,2.53708 0,3.36494 -1.28471,0.79399 -1.31399,1.78168 -0.0962,3.24892 0.96225,1.15945 1.18829,2.71501 0.5023,3.45681 -0.68598,0.7418 1.16413,0.89018 4.1114,0.32975 4.45775,-0.84766 5.32039,-0.51113 5.13111,2.00163 -0.12518,1.66132 -1.17829,3.02059 -2.34032,3.02059 -1.16203,0 -1.78197,-0.53526 -1.37764,-1.18947 z m 75.15594,-68.07218 c 0.0343,-2.77607 0.41136,-3.70806 0.83793,-2.07106 0.42658,1.63699 0.39853,3.90832 -0.0624,5.0474 -0.46088,1.13908 -0.80989,-0.20026 -0.77561,-2.97634 z m -1.68247,-38.69678 c 0.0343,-2.77608 0.41136,-3.70806 0.83794,-2.07107 0.42657,1.63699 0.39852,3.90832 -0.0624,5.04741 -0.46088,1.13908 -0.80989,-0.20027 -0.77561,-2.97634 z m -1.62013,-34.49062 c 0,-3.23875 0.34625,-4.56369 0.76944,-2.94432 0.42317,1.61938 0.42317,4.26927 0,5.88864 -0.42319,1.61938 -0.76944,0.29444 -0.76944,-2.94432 z m -1.80716,-31.96691 c 0,-2.31339 0.38189,-3.25978 0.84862,-2.10308 0.46673,1.15669 0.46673,3.04947 0,4.20617 -0.46673,1.1567 -0.84862,0.21031 -0.84862,-2.10309 z M 422.86772,372.15873 C 390.2784,367.9602 342.32743,329.94136 305.22136,278.88057 293.35742,262.55486 287.30043,252.8023 289.02503,252.8023 c 0.46267,0 1.96852,2.17992 3.34629,4.84426 1.37779,2.66436 8.09167,12.31753 14.91972,21.45148 44.99326,60.18797 102.47366,98.83192 132.38818,89.00426 3.64771,-1.19835 3.91417,-1.04155 2.04896,1.20589 -2.64067,3.18182 -8.92112,4.13104 -18.86046,2.85054 z m 21.8721,-5.67138 c 0,-0.46268 1.51422,-1.65163 3.36494,-2.6421 1.85071,-0.99047 3.36494,-1.42231 3.36494,-0.95963 0,0.46268 -1.51423,1.65163 -3.36494,2.6421 -1.85072,0.99047 -3.36494,1.42231 -3.36494,0.95963 z m 12.1979,-7.73695 c 2.54473,-1.97899 4.71461,-5.2385 4.82196,-7.24338 0.15882,-2.96487 0.34169,-3.08061 0.98017,-0.62008 0.89921,3.46528 -1.84167,7.33504 -6.92562,9.77811 -2.19234,1.05351 -1.77192,0.33703 1.12349,-1.91465 z m -4.00017,-18.0391 c -2.13591,-2.72351 -2.05674,-2.75921 1.05585,-0.47609 1.85072,1.35754 3.6804,2.68248 4.06597,2.94432 0.38556,0.26185 -0.0895,0.47609 -1.05585,0.47609 -0.96627,0 -2.79596,-1.32494 -4.06597,-2.94432 z m -19.97501,-13.88037 c -1.5164,-0.97997 -1.72391,-1.64123 -0.51992,-1.65671 1.10208,-0.0135 2.47172,0.73135 3.04362,1.65671 1.29096,2.08884 0.70852,2.08884 -2.5237,0 z m -21.35801,-15.84325 c 0.17993,-1.00247 -0.61924,-1.63339 -1.77594,-1.40206 -1.1567,0.23134 -1.91381,-0.52577 -1.68247,-1.68246 0.23134,-1.1567 -0.58205,-1.89505 -1.80753,-1.64078 -1.25929,0.26127 -1.72773,-0.3474 -1.0773,-1.39982 0.7456,-1.20641 2.86321,-0.22156 6.0137,2.79679 5.67472,5.43673 5.53978,5.15101 2.43263,5.15101 -1.33664,0 -2.28303,-0.8202 -2.10309,-1.82268 z m -20.34137,-19.11469 c -3.9648,-4.15145 -6.94602,-7.81081 -6.62494,-8.13191 0.3211,-0.32108 3.89637,2.79146 7.94506,6.91677 4.04869,4.12531 7.02991,7.78466 6.62494,8.13189 -0.40497,0.34725 -3.98023,-2.7653 -7.94506,-6.91675 z m -21.49905,-24.34909 -4.94157,-5.46802 5.46803,4.94156 c 5.09697,4.60623 6.24137,5.99448 4.94156,5.99448 -0.28955,0 -2.75016,-2.46061 -5.46802,-5.46802 z M 280.588,240.09681 c -3.39045,-6.06266 -5.8881,-11.29753 -5.55037,-11.63303 0.33773,-0.3355 3.46734,4.62486 6.95468,11.02302 3.48735,6.39816 5.98501,11.63303 5.55036,11.63303 -0.43463,0 -3.56424,-4.96036 -6.95467,-11.02302 z M 269.12966,214.8817 c -1.62355,-4.23089 -1.1446,-5.32258 0.83876,-1.91186 0.98204,1.68878 1.43111,3.42494 0.99793,3.85812 -0.43319,0.43319 -1.2597,-0.44264 -1.83669,-1.94626 z m -4.14838,-15.91841 c 0,-2.3134 0.38189,-3.25979 0.84862,-2.10309 0.46674,1.1567 0.46674,3.04948 0,4.20617 -0.46673,1.1567 -0.84862,0.21031 -0.84862,-2.10308 z m 0,-8.41235 c 0,-2.31339 0.38189,-3.25978 0.84862,-2.10308 0.46674,1.15669 0.46674,3.04947 0,4.20617 -0.46673,1.1567 -0.84862,0.21031 -0.84862,-2.10309 z m 40.795,-15.56284 -3.20509,-3.78555 3.78555,3.20509 c 3.55748,3.01199 4.55149,4.36602 3.20509,4.36602 -0.31926,0 -2.02276,-1.7035 -3.78555,-3.78556 z"
         id="path3747"
         inkscape:connector-curvature="0" />
      <path
         id="path3778"
         d="m 299.27148,780.02148 c -0.23964,-0.48171 -0.41271,2.10672 -0.41796,6.96485 -0.007,6.47751 0.29044,9.33249 0.6621,6.3457 0.37161,-2.98677 0.37789,-8.28466 0.0137,-11.77539 -0.0911,-0.87268 -0.17794,-1.37458 -0.25782,-1.53516 z"
         style="fill:#fd464a"
         inkscape:connector-curvature="0" />
      <path
         inkscape:connector-curvature="0"
         id="path3760"
         d="m 445.80664,500.08594 -5.20703,1.71679 c 0.80683,2.87746 1.22327,7.10335 1.48437,14.46094 0.32536,9.16836 0.7292,16.66992 0.89844,16.66992 0.28628,0 0.98858,24.10152 2.18164,74.88477 0.27192,11.57495 1.04246,21.93278 1.71289,23.01758 0.67045,1.08479 0.41313,2.47107 -0.57226,3.08008 -1.26031,0.77888 -1.24374,1.76556 0.0547,3.33007 1.33951,1.61401 1.33951,2.53738 0,3.36524 -1.30364,0.80568 -1.20316,1.93323 0.33984,3.83789 1.8228,2.25003 1.79182,2.46163 -0.17969,1.27344 -1.60403,-0.96672 -1.977,-0.80094 -1.16211,0.51757 0.66027,1.06833 2.48016,1.92952 4.04492,1.91602 7.70844,-0.0698 7.66876,1.37833 2.13672,-77.56445 -2.17777,-31.07718 -3.82025,-51.96825 -5.73242,-70.50586 z"
         style="fill:#fca322;fill-opacity:1" />
      <path
         id="path3758"
         d="m 522.33789,474.87695 -69.60156,22.92774 c 0.70369,6.21594 1.63287,13.68616 1.9082,17.46289 0.97819,13.41769 3.31728,46.35212 5.19727,73.1875 1.87999,26.83538 3.59005,50.48801 3.80078,52.56054 0.3696,3.63515 0.96617,3.47069 16.91601,-4.61718 19.52914,-9.90286 40.36698,-23.94468 44.82618,-30.20703 3.57134,-5.0155 3.60615,-1.55533 -0.88868,-90.08203 -1.13496,-22.35355 -1.53053,-29.32274 -2.1582,-41.23243 z"
         style="fill:#fca322;fill-opacity:1"
         inkscape:connector-curvature="0" />
      <path
         inkscape:connector-curvature="0"
         id="path3745"
         d="m 306.08398,123.64453 c -9.04502,1.01951 -31.33807,11.58668 -47.32031,22.43164 -53.9637,36.61776 -64.84678,65.12167 -69.23047,181.32031 l -1.10937,29.42969 9.09179,5.75586 c 5.00062,3.16602 22.34139,13.20248 38.53516,22.30274 40.34702,22.67344 90.35142,51.47218 129.55078,74.61328 47.55884,28.07608 64.3377,37.25801 68.13867,37.28711 3.90168,0.0299 5.77385,1.14617 6.85938,5.01757 l 5.20703,-1.71679 c -1.90304,-18.44913 -4.07341,-34.56756 -7.30664,-56.0625 -6.54584,-43.51772 -7.42593,-52.12962 -5.45508,-53.34766 1.29266,-0.79888 2.93738,-0.86731 3.6543,-0.15039 1.85326,1.85326 11.8709,70.47774 16.03711,107.2793 l 69.60156,-22.92774 c -1.5072,-28.59829 -2.37443,-42.92686 -3.72656,-58.0332 -2.24687,-25.10275 -8.2042,-73.32386 -9.27149,-75.05078 -0.43647,-0.7062 -4.93467,-2.8348 -9.99609,-4.72852 -69.80929,-26.119 -140.12644,-105.13257 -174.75781,-196.37109 -5.86067,-15.44029 -8.79328,-18.14314 -18.50196,-17.04883 z m -12.0664,42.74219 c 1.33628,0.15396 2.61554,0.59787 3.95898,1.29687 6.82309,3.55009 10.07501,7.79072 29.20899,38.08594 9.67009,15.31084 23.52395,35.75391 30.78515,45.42774 18.07059,24.07475 52.75657,58.01358 77.29688,75.63281 21.93031,15.74532 27.91601,21.22725 27.91601,25.5625 0,3.01329 -1.9815,4.70851 -16.1914,13.84765 -9.92887,6.3858 -13.71036,7.31373 -24.1875,5.9375 -39.35285,-5.1692 -98.93265,-58.32174 -136.12891,-121.44531 -9.49876,-16.11978 -13.62271,-25.05455 -18.68164,-40.46484 -6.04991,-18.42893 -3.75331,-27.57577 9.15234,-36.45508 8.33676,-5.73584 12.86224,-7.88767 16.8711,-7.42578 z"
         style="fill:#fd464a;stroke:#fd464a;stroke-opacity:1" />
      <path
         style="fill:#13100d;stroke:#000000"
         d="m 351.82003,888.71503 c -15.79956,-3.76319 -34.41297,-21.7287 -44.52116,-42.97143 -8.06481,-16.94851 -10.19793,-30.10472 -8.79748,-54.25963 0.9805,-16.91174 1.42948,-18.92777 4.21541,-18.92777 2.89319,0 3.12058,1.78947 3.1535,24.81641 0.031,21.64566 0.5373,26.23794 3.96294,35.94212 14.15456,40.09715 53.1391,63.0371 65.73437,38.68055 1.74166,-3.36798 2.74683,-14.59126 3.60583,-40.26093 l 1.19104,-35.59118 -8.24225,-3.637 c -11.40157,-5.03108 -108.5874,-59.33794 -120.96765,-67.59598 -30.0488,-20.04356 -65.16889,-70.38348 -78.85621,-113.02978 -11.17725,-34.8255 -11.82744,-45.20406 -8.64313,-137.96246 2.97543,-86.67391 15.27796,-249.13941 20.4482,-270.03628 3.36388,-13.59598 8.73634,-23.00911 18.01218,-31.55928 10.76321,-9.92116 28.0081,-15.39456 28.0081,-8.88953 0,0.9452 -4.75838,3.87608 -10.57419,6.51309 -19.65507,8.91204 -28.3002,23.88464 -31.39206,54.36832 -10.33544,101.90052 -18.41573,238.35689 -18.71821,316.10522 -0.14536,37.35751 5.3299,62.87349 20.54886,95.7627 13.37885,28.91266 41.65946,65.27473 62.83762,80.79413 11.16051,8.17843 122.54038,70.7221 125.94431,70.7221 0.38553,0 1.11779,-1.59399 1.62726,-3.54221 1.24935,-4.77755 5.22606,-3.17273 5.88372,2.37442 0.42838,3.61331 1.86756,4.86214 7.57111,6.56974 3.8732,1.15961 12.40167,2.12205 18.95216,2.13877 10.35435,0.0264 12.99144,-0.63678 20.18963,-5.07744 10.53972,-6.5021 18.15044,-18.89643 21.87034,-35.61672 7.29425,-32.78624 -2.85765,-216.64046 -17.24614,-312.33318 -6.54345,-43.51817 -7.42371,-52.13027 -5.45284,-53.34833 1.29266,-0.7989 2.93684,-0.866 3.65376,-0.14907 2.15561,2.15562 16.03307,98.52653 17.96283,124.74159 9.70404,131.82509 10.43593,146.27885 9.85425,194.60663 -0.56982,47.34109 -0.68786,48.78004 -4.89809,59.70961 -8.87396,23.03645 -21.99301,33.52062 -43.34622,34.6404 -8.33992,0.43735 -15.60581,-0.19437 -20.80676,-1.80902 l -7.99173,-2.48104 0,30.03697 c 0,16.52033 -0.83265,33.91947 -1.85033,38.66477 -2.27079,10.58832 -9.59749,19.42236 -18.05709,21.77201 -6.8725,1.90884 -7.33474,1.91253 -14.86588,0.11878 z"
         id="path3743"
         inkscape:connector-curvature="0" />
      <g
         transform="translate(-375.52558,184.56777)"
         id="g4593">
        <path
           inkscape:connector-curvature="0"
           style="fill:#fbc326;fill-opacity:1;stroke:#fbc326;stroke-opacity:1"
           d="m 669.08398,-18.539062 c -5.29966,-10e-7 -20.20663,8.8409807 -24.375,14.4570308 -7.14056,9.6204599 -1.6536,32.1027182 15.28125,62.6113282 33.95935,61.178683 93.79993,116.148643 135.81641,124.761723 3.70143,0.75876 7.10763,1.44278 7.57031,1.52148 3.75031,0.63844 17.08243,-4.27568 24.54102,-9.04688 13.26413,-8.48496 12.68455,-11.43102 -4.77149,-24.23242 -7.6342,-5.59855 -14.63714,-10.78445 -15.5625,-11.52539 -10.96374,-8.77876 -18.35357,-13.629 -19.5957,-12.86133 -0.83522,0.5162 -1.3109,-0.0636 -1.05664,-1.28906 0.25427,-1.22548 -0.48392,-2.03992 -1.64062,-1.80859 -1.1567,0.23134 -1.91299,-0.52495 -1.68164,-1.68164 0.23134,-1.1567 -0.5269,-1.91494 -1.6836,-1.6836 -1.1567,0.23134 -1.91298,-0.52494 -1.68164,-1.68164 0.23134,-1.1567 -0.52689,-1.91298 -1.68359,-1.68164 -1.1567,0.23134 -1.91298,-0.14777 -1.68164,-0.84179 0.23134,-0.69401 -0.16128,-1.43826 -0.87305,-1.65235 -1.77543,-0.534 -15.07841,-14.50751 -17.47656,-18.35742 -1.07058,-1.71869 -2.77564,-2.934465 -3.78711,-2.703125 -1.01147,0.23134 -1.64931,-0.526894 -1.41797,-1.683594 0.23134,-1.15669 -0.58116,-1.894905 -1.80664,-1.640625 -1.22558,0.25425 -1.80253,-0.226872 -1.28125,-1.070312 0.52128,-0.84342 -0.28056,-2.553702 -1.78321,-3.800782 C 741.82506,80.069492 714.68241,41.326929 692.60547,5.8554688 682.13999,-10.959631 674.83138,-18.539062 669.08398,-18.539062 Z M 561.47266,315.0918 560.2793,346.38672 c -2.39555,62.9072 6.31284,104.49648 28.33984,135.34961 12.57929,17.61976 51.90708,52.13476 59.4043,52.13476 1.23738,0 1.86628,0.38176 1.39844,0.84961 -1.43243,1.4324 13.32184,10.42705 15.66015,9.54688 1.20478,-0.45348 1.77267,-0.14703 1.26172,0.67969 -1.21267,1.96216 13.74109,10.72545 15.96094,9.35351 0.93533,-0.57806 1.49254,-0.0497 1.23828,1.17578 -0.25427,1.22547 0.48392,2.03994 1.64062,1.8086 1.1567,-0.23134 2.10352,0.31715 2.10352,1.21875 0,2.17986 9.77862,7.1669 11.71094,5.97265 0.83423,-0.51558 2.06479,-0.0502 2.73437,1.03321 0.76035,1.23025 0.48852,1.51929 -0.72461,0.76953 -1.06834,-0.66026 -1.94336,-0.79821 -1.94336,-0.30469 0,0.49353 2.46133,2.16981 5.46875,3.72461 4.31674,2.23169 5.11339,2.313 3.78516,0.38476 -0.92536,-1.34341 -0.16908,-0.79993 1.68164,1.20704 4.53202,4.91468 10.54739,7.86443 13.07422,6.4121 1.13757,-0.65381 1.51362,-0.5751 0.83398,0.17579 -0.67963,0.75087 0.0767,2.36326 1.68164,3.58203 3.63288,2.75864 6.03656,2.96503 4.43946,0.38086 -0.74976,-1.21313 -0.46073,-1.48496 0.76953,-0.72461 1.08335,0.66958 1.61198,1.79694 1.17383,2.50586 -0.43815,0.70893 1.84564,2.54932 5.07617,4.08984 6.58986,3.1425 8.03758,3.44071 6.77539,1.39844 -0.47659,-0.77114 0.16277,-1.40235 1.42187,-1.40235 1.34837,0 1.88946,1.04182 1.31641,2.53516 -0.71453,1.86201 -0.20243,2.24006 1.92969,1.42188 1.72754,-0.66293 2.48863,-0.44089 1.87695,0.54882 -0.56534,0.91476 -0.66817,1.66407 -0.22656,1.66407 0.4416,0 2.18971,0.52033 3.88476,1.15625 2.46203,0.92367 2.74445,0.65327 1.40039,-1.3418 -0.94973,-1.40975 -0.54208,-1.27372 0.93555,0.31055 1.43969,1.54359 4.46678,3.27413 6.72852,3.84765 2.26174,0.57354 3.16646,0.60937 2.00976,0.0781 -1.1567,-0.53126 -2.07767,-1.85011 -2.04687,-2.92969 0.0308,-1.07959 1.52429,-0.20146 3.31836,1.95117 2.06691,2.48 4.04973,3.42142 5.41211,2.57031 2.76899,-1.72987 13.15168,-2.06446 12.11718,-0.39062 -0.43207,0.69911 -2.26632,0.98565 -4.07812,0.63672 -1.8118,-0.34892 -3.74589,0.0948 -4.29688,0.98633 -0.62537,1.01198 5.20898,1.40661 15.52735,1.04882 12.07289,-0.41865 18.29358,-1.45121 23.07226,-3.82812 3.59843,-1.78986 6.43697,-3.82161 6.3086,-4.51563 -0.12834,-0.69402 -0.80012,-1.07313 -1.49414,-0.84179 -0.69405,0.23133 -1.05506,1.04384 -0.80079,1.80664 0.25426,0.7628 -0.26017,0.94108 -1.14453,0.39453 -0.88433,-0.54657 -2.10584,-0.18852 -2.71484,0.79687 -0.76999,1.24586 -1.83162,1.19232 -3.48242,-0.17773 -2.10448,-1.74657 -2.99402,-1.09637 -2.66602,1.94727 0.0582,0.5398 -0.94525,0.98046 -2.23047,0.98046 -1.28522,0 -2.1897,-0.44066 -2.00976,-0.98046 0.17993,-0.53979 -0.43012,-0.98243 -1.35547,-0.98243 -0.92536,0 -1.42953,0.75824 -1.12109,1.6836 0.30847,0.92536 -10e-4,1.11957 -0.6875,0.43359 -0.68599,-0.68599 -2.19602,-0.45834 -3.35547,0.50391 -1.46406,1.21492 -2.44951,1.19749 -3.22461,-0.0566 -0.61385,-0.99321 -0.11219,-1.59801 1.11328,-1.34375 1.22548,0.25427 2.03798,-0.48393 1.80664,-1.64063 -0.23134,-1.1567 0.52689,-1.91493 1.68359,-1.68359 1.1567,0.23134 1.91298,-0.52494 1.68164,-1.68164 -0.23134,-1.1567 0.52494,-1.91494 1.68164,-1.6836 1.1567,0.23134 1.91494,-0.52494 1.6836,-1.68164 -0.23134,-1.15669 0.52494,-1.91298 1.68164,-1.68164 1.15669,0.23134 1.91493,-0.5269 1.68359,-1.68359 -0.23133,-1.1567 0.52495,-1.91298 1.68164,-1.68164 1.1567,0.23134 1.91494,-0.52691 1.6836,-1.6836 -0.23134,-1.1567 0.52494,-1.91298 1.68164,-1.68164 1.1567,0.23134 1.91298,-0.52689 1.68164,-1.68359 -0.23134,-1.1567 0.52689,-1.91298 1.68359,-1.68164 1.1567,0.23134 1.91298,-0.52494 1.68164,-1.68164 -0.23134,-1.1567 0.14778,-1.91494 0.8418,-1.68359 0.69402,0.23134 1.26172,-0.33636 1.26172,-1.26172 0,-0.92536 -0.44068,-1.53539 -0.98047,-1.35547 -0.5398,0.17994 -0.98242,-0.72455 -0.98242,-2.00977 0,-1.28522 0.81978,-2.1897 1.82226,-2.00976 1.00247,0.17993 1.63369,-0.6187 1.40235,-1.77539 -0.23134,-1.1567 0.26093,-1.91299 1.09375,-1.68165 0.83282,0.23134 1.51367,-0.33636 1.51367,-1.26171 0,-0.92536 -0.55383,-1.5354 -1.23242,-1.35547 -0.67861,0.17994 -1.23438,-0.72455 -1.23438,-2.00977 0,-1.28522 0.81979,-2.1897 1.82227,-2.00976 1.00247,0.17992 1.63368,-0.61869 1.40234,-1.77539 -0.23133,-1.15669 0.14778,-1.91494 0.8418,-1.6836 0.69402,0.23134 1.26172,-0.33636 1.26172,-1.26172 0,-0.92536 -0.44267,-1.53539 -0.98242,-1.35547 -0.53981,0.17994 -0.98047,-0.72453 -0.98047,-2.00976 0,-1.28522 0.81978,-2.18971 1.82226,-2.00977 1.00247,0.17992 1.61366,-0.67491 1.35938,-1.90039 -0.25425,-1.22546 0.35054,-1.72518 1.34375,-1.11133 1.28098,0.79174 1.27038,1.76206 -0.0391,3.33985 -1.33951,1.614 -1.33951,2.53737 0,3.36523 1.33952,0.82786 1.33952,1.74927 0,3.36328 -1.33951,1.61401 -1.33951,2.53738 0,3.36524 1.33952,0.82786 1.33952,1.75122 0,3.36523 -1.17653,1.41765 -1.24958,2.59304 -0.19921,3.24219 0.90636,0.56016 1.93962,0.43958 2.29492,-0.26953 0.35524,-0.70911 0.56306,-23.62382 0.46094,-50.92188 -0.15129,-40.45651 -0.60193,-49.54144 -2.4336,-49.13867 -7.32644,1.61101 -21.67017,-4.21431 -47.43555,-19.25976 -48.5476,-28.3489 -132.38256,-76.74657 -172.35739,-99.50392 -21.34203,-12.14984 -40.75437,-23.8997 -43.13867,-26.10937 l -4.33398,-4.01758 z m 266.89453,209.00586 c 0.17087,-0.0188 0.35813,0.027 0.55469,0.14843 0.78622,0.48591 0.99529,1.5878 0.46289,2.44922 -1.36048,2.20131 -1.89063,1.95412 -1.89063,-0.88281 0,-1.0105 0.36043,-1.65846 0.87305,-1.71484 z m 0,6.72851 c 0.17087,-0.0188 0.35813,0.0289 0.55469,0.15039 0.78622,0.48591 0.99529,1.58779 0.46289,2.44922 -1.36048,2.20131 -1.89063,1.95412 -1.89063,-0.88281 0,-1.01051 0.36043,-1.66042 0.87305,-1.7168 z m 0,6.73047 c 0.17087,-0.0188 0.35813,0.0289 0.55469,0.15039 0.78622,0.48592 0.99529,1.5878 0.46289,2.44922 -1.36048,2.20131 -1.89063,1.95412 -1.89063,-0.88281 0,-1.01051 0.36043,-1.66042 0.87305,-1.7168 z M 688.9707,556.86523 c 0.0869,-0.0868 0.76732,0.42042 2.10157,1.4668 1.61938,1.27001 2.94531,2.59594 2.94531,2.94531 0,1.38474 -1.38215,0.49203 -3.58008,-2.31054 -1.04638,-1.33425 -1.55364,-2.01472 -1.4668,-2.10157 z m 137.19336,0.65235 c -0.36093,-0.015 -0.7299,0.0742 -1.05859,0.27734 -0.87652,0.5417 -1.14914,1.70162 -0.60742,2.57813 0.5417,0.87652 1.7016,1.15109 2.57812,0.60937 0.87651,-0.5417 1.1511,-1.70356 0.60938,-2.58008 -0.33857,-0.54782 -0.91993,-0.85973 -1.52149,-0.88476 z m 0.11328,6.89258 c -0.73111,0.0425 -1.57741,0.683 -2.97656,1.94922 -3.07457,2.78247 -3.06979,2.93703 0.21875,6.4375 l 3.36914,3.58593 -8.31445,8.18946 c -4.5731,4.50432 -7.8958,8.86918 -7.38281,9.69921 0.51298,0.83003 2.35475,0.22238 4.09179,-1.3496 1.73701,-1.572 2.6517,-3.70329 2.03321,-4.73633 -0.6185,-1.03302 0.17368,-0.82371 1.76171,0.46484 3.03283,2.46089 4.43705,1.98455 5.20313,-1.76758 0.25348,-1.24149 1.01184,-3.52319 1.68555,-5.07031 0.67373,-1.54711 1.43001,-3.81791 1.68164,-5.04688 0.25165,-1.22895 1.03622,-3.57002 1.74218,-5.20117 0.75382,-1.74169 0.41215,-4.01535 -0.82812,-5.50976 -0.93812,-1.13038 -1.55404,-1.68703 -2.28516,-1.64453 z m -0.18554,3.10937 c 1.07959,0 1.96289,0.8833 1.96289,1.96289 0,1.07959 -0.8833,1.96289 -1.96289,1.96289 -1.07959,0 -1.96289,-0.8833 -1.96289,-1.96289 0,-1.07959 0.8833,-1.96289 1.96289,-1.96289 z m -113.56641,2.80469 c 0.0868,-0.0868 0.76731,0.42236 2.10156,1.46875 1.61938,1.27001 2.94532,2.594 2.94532,2.94336 0,1.38474 -1.38216,0.49398 -3.58008,-2.3086 -1.04639,-1.33424 -1.55364,-2.01667 -1.4668,-2.10351 z m 111.35547,4.64844 c -1.36464,-0.093 -5.27785,2.8932 -10.53125,8.09179 -5.39694,5.34061 -9.41845,10.34952 -8.93555,11.13086 0.48288,0.78135 1.59614,0.97727 2.47266,0.43555 0.87651,-0.5417 1.14617,-1.70746 0.59961,-2.5918 -0.54655,-0.88436 0.009,-1.40073 1.23437,-1.14648 1.22547,0.25427 2.03994,-0.48393 1.8086,-1.64063 -0.23134,-1.15669 0.52494,-1.91298 1.68164,-1.68164 1.1567,0.23134 1.91298,-0.5269 1.68164,-1.68359 -0.23134,-1.1567 0.52689,-1.91298 1.68359,-1.68164 1.1567,0.23134 1.91298,-0.52691 1.68164,-1.6836 -0.23134,-1.1567 0.5269,-1.91298 1.6836,-1.68164 1.1567,0.23134 1.91298,-0.52689 1.68164,-1.68359 -0.23134,-1.1567 0.14777,-2.01187 0.84179,-1.90234 2.8648,0.45233 3.91651,-0.30677 2.83985,-2.04883 -0.0874,-0.14148 -0.22888,-0.21913 -0.42383,-0.23242 z m -2.24219,9.69336 c 0.17087,-0.0188 0.35813,0.0289 0.55469,0.15039 0.78621,0.48592 0.99335,1.5878 0.46094,2.44921 -1.36047,2.20131 -1.89063,1.95217 -1.89063,-0.88476 0,-1.01051 0.36239,-1.65846 0.875,-1.71484 z m -32.5625,13.13867 c 1.30663,0 1.98636,0.63119 1.50977,1.40234 -0.47658,0.77112 -1.15631,1.40235 -1.50977,1.40235 -0.35345,-10e-6 -1.03124,-0.63123 -1.50781,-1.40235 -0.4766,-0.77115 0.20119,-1.40234 1.50781,-1.40234 z"
           id="path3749" />
        <g
           id="g4589">
          <path
             sodipodi:nodetypes="cccc"
             inkscape:connector-curvature="0"
             id="path3782"
             d="m 841.54476,462.85799 c 22.23029,-11.88258 42.4689,-25.75683 61.31858,-41.02002 11.08428,83.00725 -0.81523,147.36101 -67.239,167.46318 11.84733,-34.24864 4.21445,-84.08143 5.92042,-126.44316 z"
             style="color:#000000;display:inline;overflow:visible;visibility:visible;fill:#fbc326;fill-opacity:1;fill-rule:evenodd;stroke:#fbc326;stroke-width:1.31200004;stroke-linecap:round;stroke-linejoin:round;stroke-miterlimit:4;stroke-dasharray:none;stroke-dashoffset:0;stroke-opacity:1;marker:none;enable-background:accumulate" />
          <path
             sodipodi:nodetypes="ccccc"
             inkscape:connector-curvature="0"
             id="path4587"
             d="m 831.44801,515.57199 c -1.72196,28.26523 1.84878,63.4197 -8.90315,79.931 -18.89967,10.798 -37.79934,6.18512 -56.69901,3.95007 -25.0694,-10.1661 -50.13879,-22.90971 -75.20819,-37.40956 z"
             style="color:#000000;display:inline;overflow:visible;visibility:visible;fill:#fbc326;fill-opacity:1;fill-rule:evenodd;stroke:#fbc326;stroke-width:1.31730378px;stroke-linecap:butt;stroke-linejoin:miter;stroke-miterlimit:4;stroke-dasharray:none;stroke-dashoffset:0;stroke-opacity:1;marker:none;enable-background:accumulate" />
        </g>
      </g>
    </g>
  </g>
</svg>
